<svg width="588" height="383" viewBox="0 0 588 383" fill="none" xmlns="http://www.w3.org/2000/svg">
<path d="M55.8462 65.1538C55.8462 59.546 60.3922 55 66 55H522.018C527.626 55 532.172 59.546 532.172 65.1538V377.022H55.8462V65.1538Z" fill="#1A202C"/>
<path d="M59.5385 65.4011C59.5385 61.3227 62.8447 58.0165 66.9231 58.0165H521.262C525.341 58.0165 528.647 61.3227 528.647 65.4011V364.201H59.5385V65.4011Z" fill="black"/>
<rect width="443.077" height="271.909" transform="translate(72.4615 77.3162)" fill="#0F0F10"/>
<rect x="72.5361" y="77.4076" width="442.846" height="271.909" fill="white"/>
<rect x="72.5361" y="77.4076" width="442.846" height="271.909" fill="#2E28FA" fill-opacity="0.03"/>
<path d="M224.888 222.288C222.392 222.288 220.32 221.464 218.672 219.816C217.024 218.152 216.2 216.08 216.2 213.6C216.2 211.12 217.024 209.056 218.672 207.408C220.32 205.744 222.392 204.912 224.888 204.912C226.872 204.912 228.592 205.472 230.048 206.592C231.52 207.696 232.504 209.152 233 210.96H229.328C228.928 210.08 228.336 209.4 227.552 208.92C226.784 208.424 225.888 208.176 224.864 208.176C223.328 208.176 222.072 208.688 221.096 209.712C220.136 210.72 219.656 212.016 219.656 213.6C219.656 215.184 220.136 216.488 221.096 217.512C222.072 218.52 223.328 219.024 224.864 219.024C225.888 219.024 226.784 218.784 227.552 218.304C228.336 217.808 228.928 217.12 229.328 216.24H233C232.504 218.048 231.52 219.512 230.048 220.632C228.592 221.736 226.872 222.288 224.888 222.288ZM235.522 210.48C236.85 209.168 238.474 208.512 240.394 208.512C242.314 208.512 243.938 209.168 245.266 210.48C246.61 211.792 247.282 213.432 247.282 215.4C247.282 217.384 246.618 219.032 245.29 220.344C243.978 221.64 242.346 222.288 240.394 222.288C238.458 222.288 236.826 221.632 235.498 220.32C234.186 219.008 233.53 217.368 233.53 215.4C233.53 213.432 234.194 211.792 235.522 210.48ZM242.818 212.784C242.178 212.112 241.37 211.776 240.394 211.776C239.418 211.776 238.602 212.112 237.946 212.784C237.306 213.456 236.986 214.328 236.986 215.4C236.986 216.472 237.306 217.344 237.946 218.016C238.602 218.688 239.418 219.024 240.394 219.024C241.37 219.024 242.178 218.688 242.818 218.016C243.474 217.344 243.802 216.472 243.802 215.4C243.802 214.328 243.474 213.456 242.818 212.784ZM255.782 208.512C257.27 208.512 258.438 208.976 259.286 209.904C260.134 210.832 260.558 212.104 260.558 213.72V222H257.126V214.464C257.126 213.568 256.934 212.896 256.55 212.448C256.166 212 255.534 211.776 254.654 211.776C252.67 211.776 251.678 212.872 251.678 215.064V222H248.246V208.8H251.678V210.6C252.67 209.208 254.038 208.512 255.782 208.512ZM270.33 208.8H273.978L269.442 222H265.338L260.802 208.8H264.45L267.378 218.28L270.33 208.8ZM280.161 208.512C282.321 208.512 284.025 209.256 285.273 210.744C286.537 212.232 287.081 214.08 286.905 216.288H276.777C276.889 217.312 277.257 218.096 277.881 218.64C278.505 219.184 279.281 219.456 280.209 219.456C280.881 219.456 281.481 219.312 282.009 219.024C282.537 218.72 282.913 218.312 283.137 217.8H286.689C286.225 219.288 285.409 220.408 284.241 221.16C283.073 221.912 281.737 222.288 280.233 222.288C278.185 222.288 276.513 221.64 275.217 220.344C273.921 219.048 273.273 217.408 273.273 215.424C273.273 213.44 273.921 211.792 275.217 210.48C276.513 209.168 278.161 208.512 280.161 208.512ZM280.137 211.344C279.321 211.344 278.641 211.568 278.097 212.016C277.553 212.448 277.169 213.032 276.945 213.768H283.257C283.065 213.032 282.697 212.448 282.153 212.016C281.609 211.568 280.937 211.344 280.137 211.344ZM295.361 208.512C295.585 208.512 295.841 208.528 296.129 208.56V212.088C295.777 212.056 295.497 212.04 295.289 212.04C294.073 212.04 293.089 212.36 292.337 213C291.601 213.624 291.233 214.664 291.233 216.12V222H287.801V208.8H291.233V211.104C292.049 209.376 293.425 208.512 295.361 208.512ZM306.747 218.448L307.323 221.232C306.923 221.504 306.347 221.752 305.595 221.976C304.859 222.184 304.123 222.288 303.387 222.288C301.963 222.288 300.779 221.84 299.835 220.944C298.907 220.048 298.443 218.704 298.443 216.912V212.04H296.091V208.8H298.443V205.944L301.875 205.2V208.8H306.771V212.04H301.875V216.72C301.875 218.304 302.579 219.096 303.987 219.096C304.611 219.096 305.531 218.88 306.747 218.448Z" fill="#13131D"/>
<path d="M319.86 208.464H312.012V211.992H319.212V215.256H312.012V222H308.58V205.2H319.86V208.464ZM321.911 210.48C323.239 209.168 324.863 208.512 326.783 208.512C328.703 208.512 330.327 209.168 331.655 210.48C332.999 211.792 333.671 213.432 333.671 215.4C333.671 217.384 333.007 219.032 331.679 220.344C330.367 221.64 328.735 222.288 326.783 222.288C324.847 222.288 323.215 221.632 321.887 220.32C320.575 219.008 319.919 217.368 319.919 215.4C319.919 213.432 320.583 211.792 321.911 210.48ZM329.207 212.784C328.567 212.112 327.759 211.776 326.783 211.776C325.807 211.776 324.991 212.112 324.335 212.784C323.695 213.456 323.375 214.328 323.375 215.4C323.375 216.472 323.695 217.344 324.335 218.016C324.991 218.688 325.807 219.024 326.783 219.024C327.759 219.024 328.567 218.688 329.207 218.016C329.863 217.344 330.191 216.472 330.191 215.4C330.191 214.328 329.863 213.456 329.207 212.784ZM342.195 208.512C342.419 208.512 342.675 208.528 342.963 208.56V212.088C342.611 212.056 342.331 212.04 342.123 212.04C340.907 212.04 339.923 212.36 339.171 213C338.435 213.624 338.067 214.664 338.067 216.12V222H334.635V208.8H338.067V211.104C338.883 209.376 340.259 208.512 342.195 208.512ZM353.019 208.8H356.451V221.832C356.451 223.784 355.859 225.344 354.675 226.512C353.491 227.696 351.907 228.288 349.923 228.288C348.211 228.288 346.723 227.856 345.459 226.992C344.211 226.128 343.467 224.872 343.227 223.224H346.779C347.131 224.568 348.147 225.24 349.827 225.24C351.955 225.24 353.019 224.136 353.019 221.928V220.032C351.995 221.408 350.611 222.096 348.867 222.096C347.139 222.096 345.699 221.456 344.547 220.176C343.411 218.896 342.843 217.272 342.843 215.304C342.843 213.336 343.419 211.712 344.571 210.432C345.723 209.152 347.155 208.512 348.867 208.512C350.627 208.512 352.011 209.216 353.019 210.624V208.8ZM349.635 218.832C350.611 218.832 351.419 218.504 352.059 217.848C352.699 217.192 353.019 216.344 353.019 215.304C353.019 214.28 352.691 213.44 352.035 212.784C351.395 212.112 350.595 211.776 349.635 211.776C348.675 211.776 347.875 212.112 347.235 212.784C346.611 213.44 346.299 214.28 346.299 215.304C346.299 216.328 346.611 217.176 347.235 217.848C347.875 218.504 348.675 218.832 349.635 218.832ZM364.323 208.512C366.483 208.512 368.187 209.256 369.435 210.744C370.699 212.232 371.243 214.08 371.067 216.288H360.939C361.051 217.312 361.419 218.096 362.043 218.64C362.667 219.184 363.443 219.456 364.371 219.456C365.043 219.456 365.643 219.312 366.171 219.024C366.699 218.72 367.075 218.312 367.299 217.8H370.851C370.387 219.288 369.571 220.408 368.403 221.16C367.235 221.912 365.899 222.288 364.395 222.288C362.347 222.288 360.675 221.64 359.379 220.344C358.083 219.048 357.435 217.408 357.435 215.424C357.435 213.44 358.083 211.792 359.379 210.48C360.675 209.168 362.323 208.512 364.323 208.512ZM364.299 211.344C363.483 211.344 362.803 211.568 362.259 212.016C361.715 212.448 361.331 213.032 361.107 213.768H367.419C367.227 213.032 366.859 212.448 366.315 212.016C365.771 211.568 365.099 211.344 364.299 211.344Z" fill="#13131D" fill-opacity="0.5"/>
<path d="M0 373.666H588V376.777C588 376.777 561.221 383 530.833 383C500.446 383 87.5543 382.689 57.1667 382.689C26.7791 382.689 0 376.777 0 376.777V373.666Z" fill="url(#paint0_linear_47_5850)"/>
<path d="M0 373.782C0 373.527 0.206638 373.32 0.461538 373.32H587.538C587.793 373.32 588 373.527 588 373.782V376.777H0V373.782Z" fill="url(#paint1_linear_47_5850)"/>
<path d="M250.318 373.32H338.062V373.32C338.062 375.229 336.515 376.777 334.606 376.777H253.774C251.865 376.777 250.318 375.229 250.318 373.32V373.32Z" fill="url(#paint2_linear_47_5850)"/>
<circle cx="106" cy="239" r="60" fill="#29ABE1" fill-opacity="0.3"/>
<g clip-path="url(#clip0_47_5850)">
<path d="M77.617 233.136L73.7213 237.043H77.617V233.136Z" fill="#088FAF"/>
<path d="M134.375 233.136L138.272 237.043H134.375V233.136Z" fill="#088FAF"/>
<path d="M134.422 217.84C134.422 217.457 134.27 217.091 134 216.82L119.66 202.481C119.39 202.21 119.023 202.058 118.64 202.058H79.0606C78.6781 202.058 78.3112 202.21 78.0407 202.481C77.7702 202.751 77.6183 203.118 77.6183 203.5V274.462C77.6183 274.844 77.7702 275.211 78.0407 275.482C78.3112 275.752 78.6781 275.904 79.0606 275.904H132.98C133.362 275.904 133.729 275.752 134 275.482C134.27 275.211 134.422 274.844 134.422 274.462V217.84Z" fill="#F1F1F1"/>
<path d="M134.374 217.481C134.311 217.231 134.181 217.002 133.999 216.82L119.66 202.481C119.389 202.21 119.022 202.058 118.64 202.058V215.749C118.64 216.208 118.822 216.648 119.147 216.972C119.471 217.297 119.912 217.479 120.371 217.479L134.374 217.481Z" fill="#CCCCCC"/>
<path d="M134.375 217.481H120.373C119.914 217.481 119.474 217.298 119.149 216.974C118.824 216.649 118.642 216.209 118.642 215.75V217.214C118.642 218.17 119.236 219.377 120.428 219.377H134.418V217.84C134.427 217.719 134.413 217.597 134.375 217.481V217.481Z" fill="#E8E8E8"/>
<path d="M137.17 261.524H74.8302C74.4477 261.524 74.0809 261.372 73.8104 261.102C73.5399 260.831 73.3879 260.465 73.3879 260.082V237.966C73.3879 237.583 73.5399 237.216 73.8104 236.946C74.0809 236.675 74.4477 236.523 74.8302 236.523H137.17C137.552 236.523 137.919 236.675 138.19 236.946C138.46 237.216 138.612 237.583 138.612 237.966V260.081C138.612 260.27 138.575 260.458 138.503 260.633C138.43 260.808 138.324 260.967 138.19 261.101C138.056 261.235 137.897 261.342 137.722 261.414C137.547 261.487 137.359 261.524 137.17 261.524V261.524Z" fill="#29ABE1"/>
<path d="M77.6168 261.524H134.422V263.395H77.6168V261.524Z" fill="#E0E0E0"/>
<path d="M86.3094 254.613C86.1979 254.491 86.1123 254.347 86.0577 254.191C86.0032 254.035 85.9809 253.869 85.9921 253.704V245.984C85.9732 245.818 85.992 245.65 86.0469 245.493C86.1019 245.336 86.1916 245.193 86.3094 245.075C86.4273 244.957 86.5702 244.867 86.7275 244.813C86.8848 244.758 87.0525 244.739 87.2181 244.758H90.1344C91.2613 244.758 92.2306 244.962 93.0421 245.371C93.8297 245.753 94.4833 246.364 94.9171 247.125C95.3498 247.885 95.5661 248.789 95.5661 249.838C95.5661 250.886 95.3522 251.799 94.9243 252.578C94.4989 253.34 93.8486 253.952 93.0623 254.33C92.2508 254.734 91.2767 254.936 90.1402 254.936H87.2181C87.0526 254.946 86.8869 254.923 86.7307 254.867C86.5746 254.812 86.4313 254.725 86.3094 254.613V254.613ZM89.9455 252.796C90.9368 252.796 91.6801 252.552 92.1753 252.066C92.6705 251.579 92.9181 250.837 92.9181 249.838C92.9181 248.837 92.6705 248.096 92.1753 247.615C91.6801 247.134 90.9368 246.894 89.9455 246.894H88.6474V252.796H89.9455Z" fill="white"/>
<path d="M99.2761 254.418C98.5202 254 97.9049 253.368 97.5078 252.601C97.0995 251.737 96.8877 250.793 96.8877 249.837C96.8877 248.882 97.0995 247.938 97.5078 247.074C97.9039 246.308 98.5196 245.677 99.2761 245.262C100.117 244.845 101.043 244.628 101.982 244.628C102.921 244.628 103.847 244.845 104.688 245.262C105.443 245.677 106.056 246.309 106.447 247.077C106.852 247.942 107.062 248.886 107.06 249.841C107.059 250.796 106.847 251.74 106.44 252.604C106.043 253.371 105.428 254.003 104.672 254.421C103.835 254.844 102.911 255.064 101.974 255.064C101.037 255.064 100.113 254.844 99.2761 254.421V254.418ZM103.785 252.211C104.217 251.667 104.434 250.876 104.434 249.837C104.434 248.799 104.215 248.01 103.778 247.471C103.341 246.931 102.742 246.662 101.982 246.663C101.221 246.664 100.62 246.931 100.178 247.463C99.7449 247.997 99.5285 248.788 99.5285 249.837C99.5285 250.886 99.7449 251.68 100.178 252.219C100.61 252.757 101.212 253.026 101.982 253.026C102.752 253.026 103.353 252.755 103.785 252.211Z" fill="white"/>
<path d="M110.777 254.433C110.018 254.017 109.4 253.384 109.001 252.615C108.588 251.753 108.374 250.808 108.374 249.852C108.374 248.895 108.588 247.951 109.001 247.088C109.4 246.32 110.018 245.687 110.777 245.27C111.702 244.802 112.734 244.586 113.769 244.644C114.804 244.703 115.805 245.033 116.672 245.601C116.817 245.697 116.938 245.826 117.025 245.976C117.103 246.138 117.14 246.316 117.133 246.496C117.141 246.77 117.051 247.039 116.881 247.254C116.809 247.35 116.717 247.428 116.61 247.482C116.503 247.536 116.386 247.564 116.266 247.564C116.134 247.566 116.002 247.544 115.877 247.499C115.736 247.443 115.6 247.373 115.473 247.29C115.176 247.106 114.856 246.96 114.521 246.858C114.221 246.771 113.91 246.727 113.598 246.728C112.741 246.728 112.104 246.985 111.685 247.499C111.267 248.014 111.058 248.796 111.058 249.845C111.058 250.902 111.267 251.689 111.685 252.204C112.104 252.72 112.741 252.977 113.598 252.976C113.883 252.974 114.165 252.925 114.435 252.832C114.704 252.741 115.05 252.598 115.473 252.406C115.675 252.299 115.825 252.227 115.92 252.188C116.031 252.148 116.148 252.129 116.266 252.132C116.386 252.132 116.504 252.16 116.61 252.214C116.717 252.268 116.81 252.346 116.881 252.442C117.051 252.657 117.141 252.925 117.133 253.199C117.138 253.376 117.101 253.552 117.025 253.711C116.94 253.865 116.818 253.997 116.672 254.094C115.726 254.745 114.6 255.084 113.452 255.061C112.521 255.085 111.6 254.868 110.777 254.433V254.433Z" fill="white"/>
<path d="M126.858 253.805C126.859 253.968 126.826 254.13 126.76 254.279C126.694 254.428 126.597 254.562 126.476 254.671C126.364 254.787 126.23 254.88 126.081 254.943C125.932 255.007 125.772 255.04 125.611 255.04C125.441 255.039 125.274 254.999 125.121 254.924C124.969 254.849 124.836 254.741 124.731 254.607L122.249 251.635L119.731 254.599C119.628 254.731 119.497 254.838 119.347 254.913C119.197 254.988 119.033 255.028 118.865 255.031C118.703 255.03 118.543 254.997 118.394 254.932C118.245 254.867 118.111 254.773 118 254.655C117.88 254.545 117.784 254.411 117.718 254.262C117.652 254.113 117.618 253.952 117.618 253.789C117.621 253.502 117.729 253.225 117.92 253.011L120.691 249.807L117.993 246.676C117.796 246.463 117.683 246.186 117.675 245.896C117.675 245.734 117.709 245.574 117.775 245.426C117.841 245.278 117.937 245.146 118.057 245.037C118.171 244.921 118.307 244.829 118.458 244.766C118.608 244.703 118.769 244.67 118.931 244.67C119.101 244.671 119.268 244.711 119.421 244.786C119.573 244.861 119.706 244.969 119.811 245.102L122.25 247.987L124.675 245.102C124.772 244.968 124.9 244.859 125.048 244.784C125.196 244.709 125.36 244.67 125.526 244.67C125.688 244.67 125.849 244.703 125.999 244.766C126.149 244.829 126.285 244.921 126.398 245.037C126.519 245.146 126.615 245.278 126.681 245.426C126.747 245.574 126.781 245.734 126.78 245.896C126.777 246.184 126.67 246.461 126.478 246.676L123.779 249.807L126.535 253.011C126.739 253.225 126.855 253.509 126.858 253.805V253.805Z" fill="white"/>
</g>
<circle cx="218" cy="60" r="60" fill="#F15642" fill-opacity="0.3"/>
<path d="M246.724 38.8586C246.724 38.4761 246.572 38.1093 246.301 37.8389L231.962 23.4995C231.692 23.229 231.325 23.0769 230.942 23.0769H191.362C190.98 23.0769 190.613 23.2288 190.343 23.4993C190.072 23.7698 189.92 24.1366 189.92 24.5192V95.4807C189.92 95.8632 190.072 96.2301 190.343 96.5006C190.613 96.7711 190.98 96.923 191.362 96.923H245.282C245.664 96.923 246.031 96.7711 246.302 96.5006C246.572 96.2301 246.724 95.8632 246.724 95.4807V38.8586Z" fill="#F1F1F1"/>
<path d="M246.67 38.4995C246.607 38.2494 246.477 38.0211 246.295 37.8389L231.955 23.4995C231.685 23.229 231.318 23.0769 230.936 23.0769V36.7672C230.936 37.2263 231.118 37.6665 231.443 37.9911C231.767 38.3157 232.208 38.498 232.667 38.498L246.67 38.4995Z" fill="#CCCCCC"/>
<path d="M246.678 38.4983H232.676C232.217 38.4983 231.776 38.316 231.452 37.9914C231.127 37.6668 230.945 37.2266 230.945 36.7676V38.2315C230.945 39.1877 231.539 40.395 232.731 40.395H246.721V38.8575C246.73 38.7361 246.716 38.6141 246.678 38.4983V38.4983Z" fill="#E8E8E8"/>
<path d="M189.913 54.155L186.017 58.0622H189.913V54.155Z" fill="#A93A2C"/>
<path d="M246.675 54.155L250.572 58.0622H246.675V54.155Z" fill="#A93A2C"/>
<path d="M249.474 82.5421H187.135C186.752 82.5421 186.385 82.3901 186.115 82.1197C185.844 81.8492 185.692 81.4823 185.692 81.0998V58.984C185.692 58.6015 185.844 58.2346 186.115 57.9641C186.385 57.6937 186.752 57.5417 187.135 57.5417H249.474C249.857 57.5417 250.223 57.6937 250.494 57.9641C250.764 58.2346 250.916 58.6015 250.916 58.984V81.0984C250.916 81.2879 250.879 81.4756 250.807 81.6508C250.735 81.8259 250.628 81.9851 250.494 82.1192C250.36 82.2532 250.201 82.3596 250.026 82.4322C249.851 82.5047 249.664 82.5421 249.474 82.5421V82.5421Z" fill="#F15642"/>
<path d="M189.92 82.541H246.725V84.4117H189.92V82.541Z" fill="#E0E0E0"/>
<path d="M205.073 75.6803C204.952 75.5526 204.859 75.4018 204.798 75.2369C204.737 75.072 204.711 74.8966 204.72 74.7211V67C204.701 66.8343 204.72 66.6664 204.775 66.509C204.83 66.3515 204.92 66.2085 205.038 66.0907C205.156 65.9728 205.299 65.8831 205.456 65.8283C205.614 65.7734 205.782 65.7549 205.947 65.774H209.645C210.77 65.774 211.646 66.06 212.272 66.6322C212.898 67.2043 213.21 68.0005 213.209 69.0208C213.209 70.0304 212.894 70.8242 212.264 71.4021C211.635 71.9801 210.762 72.2685 209.645 72.2676H207.375V74.7196C207.384 74.8957 207.357 75.0718 207.295 75.2369C207.233 75.402 207.137 75.5524 207.014 75.6788C206.883 75.8005 206.729 75.8946 206.56 75.9556C206.392 76.0165 206.213 76.0431 206.034 76.0336C205.858 76.0429 205.682 76.0164 205.517 75.9556C205.352 75.8949 205.201 75.8012 205.073 75.6803V75.6803ZM209.28 70.2771C209.771 70.2771 210.134 70.1747 210.369 69.9727C210.604 69.7708 210.723 69.4593 210.723 69.0352C210.723 68.1986 210.242 67.7803 209.28 67.7803H207.375V70.2771H209.28Z" fill="white"/>
<path d="M214.8 75.6292C214.688 75.507 214.603 75.3635 214.548 75.2073C214.494 75.0512 214.471 74.8856 214.483 74.7205V66.9998C214.464 66.8343 214.483 66.6666 214.538 66.5093C214.592 66.3519 214.682 66.209 214.8 66.0912C214.918 65.9734 215.061 65.8836 215.218 65.8287C215.375 65.7738 215.543 65.755 215.709 65.7739H218.623C219.748 65.7739 220.717 65.9782 221.531 66.3869C222.318 66.769 222.972 67.3804 223.406 68.1407C223.838 68.9013 224.055 69.8056 224.055 70.8537C224.055 71.9018 223.841 72.8152 223.413 73.5941C222.988 74.356 222.337 74.968 221.551 75.3465C220.738 75.7503 219.764 75.9527 218.629 75.9537H215.709C215.543 75.9639 215.377 75.9404 215.221 75.8846C215.065 75.8288 214.922 75.7419 214.8 75.6292V75.6292ZM218.436 73.8119C219.427 73.8119 220.17 73.5686 220.666 73.0821C221.161 72.5955 221.408 71.8527 221.408 70.8537C221.408 69.8527 221.161 69.1119 220.666 68.6311C220.17 68.1503 219.427 67.9099 218.436 67.9099H217.138V73.8119H218.436Z" fill="white"/>
<path d="M226.004 75.6748C225.882 75.5492 225.787 75.4 225.725 75.2363C225.663 75.0726 225.635 74.8978 225.642 74.7229V67.002C225.624 66.8363 225.643 66.6686 225.698 66.5113C225.753 66.354 225.843 66.2111 225.961 66.0933C226.079 65.9755 226.222 65.8858 226.379 65.8309C226.536 65.7759 226.704 65.7572 226.87 65.776H231.719C232.151 65.776 232.468 65.8601 232.67 66.0284C232.872 66.1967 232.973 66.4635 232.973 66.8289C232.973 67.1847 232.87 67.4448 232.663 67.6092C232.457 67.7722 232.141 67.8544 231.719 67.8544H228.25V69.7295H231.423C231.846 69.7295 232.161 69.816 232.368 69.9891C232.574 70.1622 232.678 70.4271 232.678 70.7838C232.678 71.1406 232.574 71.4002 232.368 71.5627C232.161 71.7252 231.846 71.8069 231.423 71.8079H228.25V74.7301C228.259 74.9055 228.232 75.081 228.172 75.2459C228.111 75.4108 228.017 75.5616 227.897 75.6892C227.634 75.9192 227.296 76.0454 226.947 76.0441C226.598 76.0428 226.261 75.914 226 75.682L226.004 75.6748Z" fill="white"/>
<circle cx="482" cy="239" r="60" fill="#00A99D" fill-opacity="0.3"/>
<g clip-path="url(#clip1_47_5850)">
<path d="M510.422 217.84C510.422 217.457 510.27 217.091 510 216.82L495.66 202.481C495.39 202.21 495.023 202.058 494.641 202.058H455.061C454.678 202.058 454.311 202.21 454.041 202.481C453.77 202.751 453.619 203.118 453.619 203.501V274.462C453.619 274.845 453.77 275.211 454.041 275.482C454.311 275.752 454.678 275.904 455.061 275.904H508.98C509.363 275.904 509.729 275.752 510 275.482C510.27 275.211 510.422 274.845 510.422 274.462V217.84Z" fill="#F1F1F1"/>
<path d="M510.375 217.481C510.312 217.231 510.182 217.002 510 216.82L495.66 202.481C495.39 202.21 495.023 202.058 494.641 202.058V215.749C494.641 216.208 494.823 216.648 495.147 216.972C495.472 217.297 495.912 217.479 496.371 217.479L510.375 217.481Z" fill="#CCCCCC"/>
<path d="M510.375 217.481H496.373C495.914 217.481 495.474 217.299 495.149 216.974C494.824 216.649 494.642 216.209 494.642 215.75V217.214C494.642 218.17 495.236 219.378 496.428 219.378H510.418V217.84C510.427 217.719 510.413 217.597 510.375 217.481V217.481Z" fill="#E8E8E8"/>
<path d="M453.617 233.136L449.721 237.043H453.617V233.136Z" fill="#008275"/>
<path d="M510.375 233.136L514.272 237.043H510.375V233.136Z" fill="#008275"/>
<path d="M513.17 261.525H450.83C450.448 261.525 450.081 261.373 449.81 261.102C449.54 260.832 449.388 260.465 449.388 260.082V237.966C449.388 237.583 449.54 237.217 449.81 236.946C450.081 236.676 450.448 236.524 450.83 236.524H513.17C513.552 236.524 513.919 236.676 514.19 236.946C514.46 237.217 514.612 237.583 514.612 237.966V260.081C514.612 260.27 514.575 260.458 514.503 260.633C514.43 260.808 514.324 260.968 514.19 261.102C514.056 261.236 513.897 261.342 513.722 261.415C513.547 261.487 513.359 261.525 513.17 261.525V261.525Z" fill="#00A99D"/>
<path d="M453.617 261.525H510.422V263.395H453.617V261.525Z" fill="#E0E0E0"/>
<path d="M477.888 253.805C477.889 253.969 477.855 254.13 477.789 254.279C477.723 254.428 477.626 254.562 477.504 254.671C477.392 254.787 477.258 254.88 477.109 254.943C476.961 255.007 476.801 255.04 476.639 255.04C476.469 255.039 476.302 254.999 476.15 254.924C475.997 254.849 475.864 254.741 475.759 254.607L473.277 251.635L470.751 254.607C470.649 254.74 470.518 254.847 470.368 254.922C470.218 254.997 470.054 255.037 469.886 255.04C469.724 255.039 469.564 255.005 469.415 254.941C469.266 254.876 469.132 254.782 469.021 254.664C468.907 254.561 468.815 254.437 468.75 254.299C468.685 254.16 468.647 254.011 468.64 253.858C468.633 253.705 468.655 253.552 468.707 253.409C468.759 253.265 468.838 253.132 468.941 253.019L471.712 249.816L469.014 246.685C468.817 246.471 468.705 246.194 468.696 245.904C468.696 245.743 468.73 245.583 468.796 245.435C468.862 245.287 468.958 245.154 469.078 245.046C469.192 244.93 469.328 244.838 469.478 244.775C469.629 244.711 469.79 244.679 469.952 244.678C470.122 244.68 470.289 244.72 470.442 244.795C470.594 244.87 470.727 244.978 470.832 245.111L473.271 247.996L475.696 245.111C475.793 244.977 475.921 244.868 476.069 244.793C476.217 244.718 476.381 244.678 476.547 244.678C476.709 244.679 476.87 244.711 477.02 244.774C477.17 244.838 477.306 244.93 477.419 245.046C477.54 245.154 477.636 245.287 477.702 245.435C477.768 245.583 477.802 245.743 477.801 245.904C477.799 246.193 477.691 246.47 477.499 246.685L474.801 249.816L477.556 253.019C477.761 253.231 477.88 253.511 477.888 253.805V253.805Z" fill="white"/>
<path d="M479.46 254.613C479.248 254.403 479.143 254.094 479.143 253.69V245.984C479.135 245.811 479.162 245.638 479.223 245.475C479.283 245.313 479.376 245.164 479.496 245.039C479.624 244.918 479.775 244.825 479.939 244.764C480.104 244.703 480.28 244.677 480.455 244.686C480.634 244.676 480.813 244.703 480.982 244.763C481.151 244.824 481.306 244.918 481.437 245.039C481.559 245.163 481.654 245.311 481.716 245.474C481.778 245.636 481.806 245.81 481.798 245.984V252.781H485.115C485.952 252.781 486.371 253.142 486.372 253.863C486.372 254.229 486.268 254.498 486.06 254.671C485.852 254.844 485.539 254.932 485.115 254.932H480.369C480.204 254.943 480.038 254.92 479.882 254.865C479.726 254.81 479.582 254.725 479.46 254.613V254.613Z" fill="white"/>
<path d="M488.962 254.808C488.382 254.676 487.831 254.439 487.337 254.108C487.192 254.006 487.071 253.873 486.983 253.719C486.905 253.557 486.868 253.379 486.875 253.2C486.87 252.927 486.962 252.661 487.135 252.45C487.204 252.353 487.295 252.275 487.4 252.219C487.505 252.164 487.622 252.135 487.741 252.132C487.863 252.132 487.985 252.151 488.101 252.19C488.253 252.245 488.398 252.318 488.534 252.406C488.903 252.617 489.299 252.777 489.711 252.882C490.143 252.984 490.586 253.032 491.03 253.027C491.599 253.027 492.029 252.943 492.329 252.774C492.465 252.704 492.578 252.597 492.656 252.466C492.734 252.334 492.773 252.183 492.768 252.03C492.768 251.81 492.631 251.62 492.357 251.46C492.083 251.301 491.561 251.144 490.791 250.991C490.017 250.848 489.266 250.606 488.554 250.27C488.016 249.99 487.638 249.661 487.422 249.282C487.175 248.802 487.065 248.263 487.105 247.724C487.144 247.186 487.331 246.668 487.645 246.229C488.035 245.713 488.554 245.308 489.15 245.058C489.832 244.762 490.569 244.615 491.313 244.625C491.946 244.616 492.577 244.694 493.188 244.856C493.727 245.006 494.235 245.25 494.688 245.577C494.84 245.679 494.967 245.814 495.057 245.974C495.134 246.134 495.171 246.31 495.166 246.487C495.171 246.759 495.081 247.024 494.913 247.237C494.845 247.334 494.755 247.413 494.651 247.468C494.547 247.523 494.431 247.553 494.313 247.554C494.196 247.555 494.079 247.538 493.967 247.504C493.81 247.446 493.66 247.371 493.52 247.28C493.472 247.252 493.334 247.177 493.109 247.057C492.858 246.927 492.591 246.83 492.316 246.768C491.991 246.694 491.659 246.658 491.326 246.66C490.913 246.641 490.503 246.738 490.143 246.941C490.009 247.013 489.896 247.12 489.818 247.251C489.739 247.382 489.697 247.532 489.696 247.684C489.689 247.848 489.746 248.009 489.855 248.131C490.025 248.286 490.227 248.401 490.446 248.47C490.865 248.616 491.294 248.73 491.73 248.809C492.486 248.954 493.219 249.199 493.909 249.539C494.368 249.759 494.758 250.101 495.036 250.527C495.264 250.931 495.379 251.39 495.367 251.854C495.377 252.458 495.189 253.048 494.832 253.536C494.449 254.043 493.932 254.432 493.34 254.661C492.63 254.939 491.872 255.074 491.11 255.059C490.386 255.066 489.665 254.981 488.962 254.808V254.808Z" fill="white"/>
</g>
<circle cx="370" cy="60" r="60" fill="#FAAF3A" fill-opacity="0.3"/>
<g clip-path="url(#clip2_47_5850)">
<path d="M398.422 38.8399C398.422 38.4574 398.27 38.0906 397.999 37.8202L383.66 23.4807C383.39 23.2102 383.023 23.0582 382.64 23.0581H343.06C342.678 23.0581 342.311 23.2101 342.041 23.4806C341.77 23.7511 341.618 24.1179 341.618 24.5004V95.462C341.618 95.8445 341.77 96.2114 342.041 96.4819C342.311 96.7523 342.678 96.9043 343.06 96.9043H396.98C397.362 96.9043 397.729 96.7523 398 96.4819C398.27 96.2114 398.422 95.8445 398.422 95.462V38.8399Z" fill="#F1F1F1"/>
<path d="M398.374 38.4809C398.311 38.2308 398.182 38.0025 397.999 37.8203L383.66 23.4809C383.39 23.2104 383.023 23.0584 382.64 23.0583V36.7487C382.64 37.2077 382.823 37.6479 383.147 37.9725C383.472 38.2971 383.912 38.4794 384.371 38.4794L398.374 38.4809Z" fill="#CCCCCC"/>
<path d="M398.375 38.4809H384.373C383.914 38.4809 383.474 38.2985 383.149 37.974C382.824 37.6494 382.642 37.2092 382.642 36.7501V38.2141C382.642 39.1703 383.236 40.3775 384.428 40.3775H398.418V38.84C398.427 38.7186 398.413 38.5966 398.375 38.4809V38.4809Z" fill="#E8E8E8"/>
<path d="M341.617 54.1357L337.721 58.0429H341.617V54.1357Z" fill="#DD9536"/>
<path d="M398.375 54.1357L402.272 58.0429H398.375V54.1357Z" fill="#DD9536"/>
<path d="M401.17 82.5245H338.831C338.448 82.5245 338.081 82.3726 337.811 82.1021C337.54 81.8316 337.388 81.4648 337.388 81.0822V58.9659C337.388 58.5834 337.54 58.2165 337.811 57.9461C338.081 57.6756 338.448 57.5236 338.831 57.5236H401.17C401.553 57.5236 401.919 57.6756 402.19 57.9461C402.46 58.2165 402.612 58.5834 402.612 58.9659V81.0808C402.613 81.2703 402.575 81.458 402.503 81.6332C402.431 81.8083 402.324 81.9675 402.19 82.1016C402.056 82.2357 401.897 82.342 401.722 82.4146C401.547 82.4872 401.36 82.5245 401.17 82.5245V82.5245Z" fill="#FAAF3A"/>
<path d="M356.738 74.9498C356.727 74.8147 356.743 74.6789 356.785 74.5502C356.827 74.4214 356.895 74.3023 356.983 74.1998C357.148 74.0368 357.407 73.9445 357.763 73.9257L358.254 73.8969C358.378 73.8995 358.5 73.8751 358.614 73.8253C358.727 73.7754 358.828 73.7014 358.91 73.6084C359.069 73.3994 359.148 73.1407 359.134 72.8786V66.9839C359.126 66.8101 359.154 66.6365 359.216 66.474C359.278 66.3115 359.372 66.1635 359.494 66.0392C359.626 65.9178 359.781 65.824 359.95 65.7634C360.118 65.7027 360.297 65.6763 360.476 65.6858C360.652 65.6785 360.827 65.706 360.991 65.7666C361.156 65.8273 361.307 65.9199 361.435 66.0392C361.559 66.1623 361.656 66.3099 361.719 66.4726C361.783 66.6353 361.811 66.8095 361.803 66.9839V72.8368C361.803 73.7983 361.551 74.5464 361.046 75.081C360.541 75.6156 359.788 75.9166 358.787 75.9839L358.326 76.0128C357.267 76.0637 356.738 75.7094 356.738 74.9498V74.9498Z" fill="white"/>
<path d="M364.004 75.6636C363.885 75.5366 363.792 75.3869 363.732 75.2233C363.672 75.0598 363.645 74.8858 363.654 74.7117V66.9838C363.635 66.8182 363.654 66.6505 363.709 66.4932C363.764 66.3359 363.853 66.193 363.971 66.0752C364.089 65.9573 364.232 65.8676 364.389 65.8127C364.547 65.7577 364.714 65.739 364.88 65.7579H368.574C369.7 65.7579 370.576 66.0439 371.2 66.616C371.824 67.1881 372.137 67.9843 372.139 69.0045C372.139 70.0141 371.824 70.8078 371.193 71.3857C370.562 71.9636 369.689 72.2521 368.574 72.2511H366.309V74.703C366.318 74.8791 366.291 75.0551 366.229 75.2201C366.167 75.3851 366.071 75.5356 365.949 75.6622C365.817 75.784 365.662 75.8782 365.493 75.9391C365.325 76 365.145 76.0265 364.966 76.017C364.79 76.0265 364.614 76 364.449 75.9393C364.284 75.8785 364.132 75.7847 364.004 75.6636V75.6636ZM368.21 70.2607C368.702 70.2607 369.064 70.1583 369.3 69.9564C369.537 69.7545 369.654 69.4429 369.654 69.0189C369.654 68.1824 369.173 67.7641 368.212 67.7641H366.308V70.2607H368.21Z" fill="white"/>
<path d="M382.171 70.4555C382.266 70.5478 382.34 70.6592 382.389 70.7823C382.437 70.9053 382.459 71.0373 382.453 71.1694V73.6805C382.464 74.0514 382.428 74.4223 382.345 74.7838C382.284 75.0208 382.147 75.2313 381.955 75.3824C381.699 75.5582 381.413 75.6853 381.111 75.7574C380.701 75.8605 380.283 75.9357 379.862 75.9824C379.439 76.0328 379.013 76.0592 378.586 76.0617C377.48 76.0617 376.519 75.8521 375.701 75.4329C374.908 75.0365 374.253 74.4076 373.826 73.63C373.394 72.8454 373.177 71.9146 373.177 70.8377C373.154 69.8762 373.377 68.9247 373.826 68.0742C374.249 67.3003 374.892 66.6696 375.674 66.2627C376.541 65.8237 377.502 65.6057 378.473 65.628C379.086 65.6198 379.696 65.7 380.285 65.866C380.819 66.0254 381.323 66.2715 381.778 66.5944C381.923 66.6905 382.044 66.8188 382.131 66.9694C382.209 67.1315 382.246 67.3103 382.239 67.4901C382.248 67.7632 382.161 68.0308 381.994 68.2473C381.927 68.3421 381.839 68.4197 381.736 68.4736C381.633 68.5275 381.519 68.5562 381.403 68.5574C381.268 68.5607 381.133 68.5387 381.006 68.4925C380.858 68.4298 380.716 68.355 380.581 68.2689C380.261 68.0916 379.922 67.9513 379.571 67.8506C379.239 67.7617 378.897 67.718 378.554 67.7208C377.64 67.7208 376.959 67.9756 376.512 68.4853C376.065 68.9949 375.841 69.779 375.841 70.8377C375.841 71.9252 376.074 72.7309 376.541 73.255C377.007 73.779 377.721 74.041 378.684 74.041C379.145 74.0414 379.604 73.9931 380.054 73.8968V72.0059H379.016C378.749 72.0231 378.486 71.938 378.28 71.768C378.113 71.5845 378.021 71.3453 378.021 71.0973C378.021 70.8492 378.113 70.6101 378.28 70.4266C378.486 70.2561 378.749 70.1705 379.016 70.1872H381.397C381.537 70.1778 381.678 70.1967 381.811 70.2427C381.944 70.2888 382.067 70.3612 382.171 70.4555V70.4555Z" fill="white"/>
<path d="M341.617 82.5245H398.422V84.3952H341.617V82.5245Z" fill="#E0E0E0"/>
</g>
<path d="M108.596 179.106C118.064 143.924 137.347 112.161 164.192 87.529L165.491 88.9437C138.913 113.33 119.823 144.775 110.45 179.605L108.596 179.106Z" fill="#727178"/>
<path d="M423.424 87.1784C450.337 111.738 469.705 143.448 479.268 178.605L477.416 179.109C467.948 144.304 448.773 112.911 422.13 88.5966L423.424 87.1784Z" fill="#727178"/>
<path d="M275.819 37.8628C287.837 36.7196 299.936 36.7124 311.956 37.8415L311.777 39.7531C299.877 38.6353 287.899 38.6424 276 39.7742L275.819 37.8628Z" fill="#727178"/>
<defs>
<linearGradient id="paint0_linear_47_5850" x1="294" y1="373.666" x2="294" y2="383" gradientUnits="userSpaceOnUse">
<stop stop-color="#80868A"/>
<stop offset="1" stop-color="#2A2C2F"/>
</linearGradient>
<linearGradient id="paint1_linear_47_5850" x1="1.23511e-06" y1="375.048" x2="588" y2="375.048" gradientUnits="userSpaceOnUse">
<stop stop-color="#2A2C2F"/>
<stop offset="0.208333" stop-color="#80868A"/>
<stop offset="0.770833" stop-color="#80868A"/>
<stop offset="1" stop-color="#2A2C2F"/>
</linearGradient>
<linearGradient id="paint2_linear_47_5850" x1="250.318" y1="375.048" x2="338.062" y2="375.048" gradientUnits="userSpaceOnUse">
<stop stop-color="#2A2C2F"/>
<stop offset="0.229167" stop-color="#80868A"/>
<stop offset="0.802083" stop-color="#80868A"/>
<stop offset="1" stop-color="#2A2C2F"/>
</linearGradient>
<clipPath id="clip0_47_5850">
<rect width="73.8462" height="73.8462" fill="white" transform="translate(69.0769 202.077)"/>
</clipPath>
<clipPath id="clip1_47_5850">
<rect width="73.8462" height="73.8462" fill="white" transform="translate(445.077 202.077)"/>
</clipPath>
<clipPath id="clip2_47_5850">
<rect width="73.8462" height="73.8462" fill="white" transform="translate(333.077 23.077)"/>
</clipPath>
</defs>
</svg>
