<svg width="80" height="80" viewBox="0 0 80 80" fill="none" xmlns="http://www.w3.org/2000/svg">
<circle cx="40" cy="40" r="40" fill="#29ABE1" fill-opacity="0.3"/>
<g clip-path="url(#clip0_47_5690)">
<path d="M21.078 36.0901L18.4809 38.6949H21.078V36.0901Z" fill="#088FAF"/>
<path d="M58.9164 36.0901L61.5145 38.6949H58.9164V36.0901Z" fill="#088FAF"/>
<path d="M58.9481 25.8929C58.948 25.6379 58.8467 25.3934 58.6664 25.2131L49.1067 15.6535C48.9265 15.4732 48.6819 15.3718 48.4269 15.3718H22.0404C21.7854 15.3718 21.5408 15.4731 21.3605 15.6534C21.1802 15.8337 21.0789 16.0783 21.0789 16.3333V63.641C21.0789 63.896 21.1802 64.1406 21.3605 64.3209C21.5408 64.5012 21.7854 64.6025 22.0404 64.6025H57.9866C58.2416 64.6025 58.4861 64.5012 58.6665 64.3209C58.8468 64.1406 58.9481 63.896 58.9481 63.641V25.8929Z" fill="#F1F1F1"/>
<path d="M58.9161 25.6535C58.8741 25.4868 58.7877 25.3346 58.6661 25.2131L49.1064 15.6535C48.9262 15.4732 48.6816 15.3718 48.4266 15.3718V24.4987C48.4266 24.8047 48.5482 25.0982 48.7646 25.3146C48.981 25.531 49.2745 25.6525 49.5805 25.6525L58.9161 25.6535Z" fill="#CCCCCC"/>
<path d="M58.9165 25.6535H49.5819C49.2759 25.6535 48.9824 25.532 48.766 25.3156C48.5496 25.0992 48.428 24.8057 48.428 24.4997V25.4757C48.428 26.1132 48.8242 26.918 49.6184 26.918H58.9454V25.893C58.9515 25.812 58.9417 25.7307 58.9165 25.6535V25.6535Z" fill="#E8E8E8"/>
<path d="M60.7798 55.0159H19.2202C18.9652 55.0159 18.7206 54.9146 18.5403 54.7343C18.3599 54.554 18.2586 54.3094 18.2586 54.0544V39.3102C18.2586 39.0552 18.3599 38.8106 18.5403 38.6303C18.7206 38.45 18.9652 38.3487 19.2202 38.3487H60.7798C61.0348 38.3487 61.2794 38.45 61.4597 38.6303C61.64 38.8106 61.7413 39.0552 61.7413 39.3102V54.0534C61.7415 54.1798 61.7167 54.3049 61.6684 54.4217C61.6202 54.5385 61.5493 54.6446 61.46 54.734C61.3707 54.8234 61.2647 54.8943 61.148 54.9426C61.0313 54.991 60.9061 55.0159 60.7798 55.0159V55.0159Z" fill="#29ABE1"/>
<path d="M21.0779 55.0159H58.9481V56.2631H21.0779V55.0159Z" fill="#E0E0E0"/>
<path d="M26.8729 50.4084C26.7986 50.3269 26.7415 50.2313 26.7052 50.1272C26.6688 50.023 26.6539 49.9126 26.6614 49.8026V44.6555C26.6488 44.5451 26.6613 44.4333 26.6979 44.3284C26.7346 44.2235 26.7944 44.1283 26.8729 44.0497C26.9515 43.9712 27.0468 43.9113 27.1516 43.8747C27.2565 43.8381 27.3683 43.8256 27.4787 43.8382H29.4229C30.1742 43.8382 30.8204 43.9744 31.3614 44.2468C31.8864 44.5016 32.3222 44.9092 32.6114 45.4161C32.8999 45.9231 33.0441 46.526 33.0441 47.2247C33.0441 47.9234 32.9015 48.5324 32.6162 49.0517C32.3326 49.5596 31.8991 49.9676 31.3749 50.2199C30.8338 50.4892 30.1845 50.6238 29.4268 50.6238H27.4787C27.3684 50.6306 27.2579 50.615 27.1538 50.578C27.0497 50.541 26.9542 50.4833 26.8729 50.4084V50.4084ZM29.297 49.1968C29.9579 49.1968 30.4534 49.0347 30.7835 48.7103C31.1136 48.3859 31.2787 47.8908 31.2787 47.2247C31.2787 46.5574 31.1136 46.0635 30.7835 45.743C30.4534 45.4225 29.9579 45.2622 29.297 45.2622H28.4316V49.1968H29.297Z" fill="white"/>
<path d="M35.5174 50.2785C35.0135 49.9999 34.6033 49.5783 34.3386 49.067C34.0663 48.4909 33.9251 47.8618 33.9251 47.2246C33.9251 46.5875 34.0663 45.9584 34.3386 45.3823C34.6026 44.8715 35.0131 44.451 35.5174 44.1746C36.078 43.8964 36.6954 43.7515 37.3213 43.7515C37.9471 43.7515 38.5645 43.8964 39.1251 44.1746C39.6288 44.4509 40.0375 44.8724 40.2982 45.3843C40.5682 45.9611 40.7077 46.5903 40.7069 47.2271C40.7061 47.864 40.5649 48.4928 40.2934 49.0689C40.0287 49.5803 39.6185 50.0018 39.1145 50.2804C38.5569 50.5624 37.9408 50.7093 37.316 50.7093C36.6911 50.7093 36.075 50.5624 35.5174 50.2804V50.2785ZM38.5232 48.8073C38.8117 48.4445 38.9559 47.917 38.9559 47.2246C38.9559 46.5323 38.8101 46.0064 38.5184 45.6468C38.2274 45.2871 37.8283 45.1077 37.3213 45.1083C36.8142 45.1089 36.4133 45.2868 36.1184 45.642C35.8299 45.9977 35.6857 46.5253 35.6857 47.2246C35.6857 47.924 35.8299 48.4532 36.1184 48.8121C36.4068 49.1711 36.8078 49.3506 37.3213 49.3506C37.8347 49.3506 38.2354 49.1695 38.5232 48.8073Z" fill="white"/>
<path d="M43.1845 50.2881C42.6784 50.0108 42.2663 49.589 42.0008 49.0766C41.7255 48.5014 41.5826 47.8719 41.5826 47.2343C41.5826 46.5966 41.7255 45.9671 42.0008 45.392C42.2665 44.8795 42.6785 44.4574 43.1845 44.1795C43.8011 43.8676 44.4891 43.7238 45.1791 43.7626C45.869 43.8014 46.5365 44.0215 47.1143 44.4006C47.211 44.4647 47.2917 44.5502 47.3499 44.6506C47.4018 44.7584 47.4265 44.8772 47.422 44.9968C47.4271 45.1799 47.3676 45.359 47.2537 45.5025C47.2062 45.5665 47.1445 45.6184 47.0733 45.6543C47.0022 45.6902 46.9238 45.709 46.8441 45.7093C46.7557 45.7106 46.6677 45.6959 46.5845 45.666C46.4904 45.6284 46.4002 45.5818 46.3153 45.5266C46.117 45.4036 45.9037 45.3066 45.6806 45.2381C45.4807 45.1803 45.2735 45.1511 45.0653 45.1516C44.4941 45.1516 44.0691 45.3231 43.7903 45.666C43.5114 46.0089 43.372 46.5301 43.372 47.2295C43.372 47.9346 43.5114 48.4589 43.7903 48.8025C44.0691 49.1461 44.4941 49.3176 45.0653 49.3169C45.2552 49.3157 45.4436 49.2832 45.623 49.2208C45.8028 49.1602 46.0335 49.065 46.3153 48.9371C46.4499 48.866 46.5499 48.8179 46.6133 48.7919C46.6873 48.7653 46.7655 48.7526 46.8441 48.7544C46.9238 48.7545 47.0024 48.7732 47.0735 48.8091C47.1446 48.845 47.2064 48.8971 47.2537 48.9612C47.3676 49.1044 47.4272 49.2831 47.422 49.466C47.4256 49.5839 47.4009 49.701 47.3499 49.8073C47.293 49.91 47.2122 49.9974 47.1143 50.0621C46.4842 50.4967 45.7335 50.7224 44.9681 50.7073C44.3475 50.723 43.7332 50.5786 43.1845 50.2881V50.2881Z" fill="white"/>
<path d="M53.9056 49.8698C53.9063 49.9786 53.8839 50.0862 53.84 50.1856C53.7961 50.2851 53.7316 50.3741 53.6508 50.4468C53.576 50.5244 53.4865 50.5862 53.3873 50.6285C53.2882 50.6708 53.1816 50.6927 53.0738 50.6929C52.9607 50.6921 52.8492 50.6657 52.7476 50.6158C52.646 50.5658 52.5571 50.4936 52.4873 50.4045L50.8325 48.4227L49.1537 50.3987C49.0852 50.4869 48.9978 50.5586 48.898 50.6085C48.7981 50.6584 48.6884 50.6853 48.5768 50.6872C48.4686 50.6866 48.3617 50.6641 48.2625 50.621C48.1633 50.5779 48.0739 50.515 47.9998 50.4362C47.9197 50.3629 47.8557 50.2738 47.8118 50.1745C47.768 50.0752 47.7452 49.9678 47.745 49.8593C47.7473 49.6675 47.8191 49.483 47.9469 49.34L49.7941 47.2045L47.995 45.117C47.8638 44.9749 47.7887 44.7901 47.7835 44.5968C47.7835 44.4889 47.8061 44.3822 47.85 44.2836C47.8939 44.185 47.9581 44.0968 48.0383 44.0246C48.1143 43.9472 48.205 43.8856 48.305 43.8435C48.405 43.8014 48.5125 43.7796 48.621 43.7795C48.7341 43.7806 48.8455 43.8072 48.947 43.8571C49.0485 43.907 49.1375 43.9791 49.2075 44.0679L50.8335 45.991L52.4498 44.0679C52.5149 43.9785 52.6002 43.9057 52.6988 43.8556C52.7974 43.8055 52.9065 43.7794 53.0171 43.7795C53.1255 43.7797 53.2328 43.8015 53.3326 43.8435C53.4325 43.8856 53.523 43.9472 53.5988 44.0246C53.6791 44.0968 53.7432 44.185 53.7871 44.2836C53.831 44.3822 53.8537 44.4889 53.8536 44.5968C53.8515 44.7889 53.7797 44.9737 53.6517 45.117L51.8527 47.2045L53.6902 49.34C53.8262 49.4831 53.9032 49.6724 53.9056 49.8698V49.8698Z" fill="white"/>
</g>
<defs>
<clipPath id="clip0_47_5690">
<rect width="49.2308" height="49.2308" fill="white" transform="translate(15.3846 15.3843)"/>
</clipPath>
</defs>
</svg>
