<svg width="80" height="80" viewBox="0 0 80 80" fill="none" xmlns="http://www.w3.org/2000/svg">
<circle cx="40" cy="40" r="40" fill="#414B4F" fill-opacity="0.3"/>
<path d="M58.9479 25.8922C58.9479 25.6373 58.8465 25.3927 58.6662 25.2124L49.1066 15.6528C48.9263 15.4725 48.6818 15.3711 48.4268 15.3711H22.0402C21.7852 15.3711 21.5407 15.4724 21.3603 15.6527C21.18 15.833 21.0787 16.0776 21.0787 16.3326V63.6403C21.0787 63.8953 21.18 64.1399 21.3603 64.3202C21.5407 64.5006 21.7852 64.6019 22.0402 64.6019H57.9864C58.2414 64.6019 58.486 64.5006 58.6663 64.3202C58.8466 64.1399 58.9479 63.8953 58.9479 63.6403V25.8922Z" fill="#F1F1F1"/>
<path d="M58.9162 25.6528C58.8742 25.4861 58.7878 25.3339 58.6661 25.2124L49.1065 15.6528C48.9263 15.4725 48.6817 15.3711 48.4267 15.3711V24.498C48.4267 24.804 48.5483 25.0975 48.7647 25.3139C48.9811 25.5303 49.2746 25.6519 49.5806 25.6519L58.9162 25.6528Z" fill="#CCCCCC"/>
<path d="M58.9164 25.6542H49.5818C49.2758 25.6542 48.9823 25.5326 48.7659 25.3162C48.5495 25.0998 48.4279 24.8063 48.4279 24.5003V25.4763C48.4279 26.1138 48.8241 26.9186 49.6183 26.9186H58.9453V25.8936C58.9514 25.8127 58.9416 25.7313 58.9164 25.6542V25.6542Z" fill="#E8E8E8"/>
<path d="M21.078 36.0905L18.4808 38.6953H21.078V36.0905Z" fill="#121618"/>
<path d="M58.9162 36.0905L61.5143 38.6953H58.9162V36.0905Z" fill="#121618"/>
<path d="M60.7798 55.0153H19.2202C18.9652 55.0153 18.7206 54.914 18.5403 54.7336C18.36 54.5533 18.2587 54.3088 18.2587 54.0537V39.3095C18.2587 39.0545 18.36 38.8099 18.5403 38.6296C18.7206 38.4493 18.9652 38.348 19.2202 38.348H60.7798C61.0348 38.348 61.2794 38.4493 61.4597 38.6296C61.6401 38.8099 61.7414 39.0545 61.7414 39.3095V54.0528C61.7415 54.1791 61.7167 54.3043 61.6684 54.421C61.6202 54.5378 61.5494 54.6439 61.4601 54.7333C61.3708 54.8227 61.2647 54.8936 61.148 54.942C61.0313 54.9904 60.9062 55.0153 60.7798 55.0153V55.0153Z" fill="#414B4F"/>
<path d="M21.0779 55.0163H58.9481V56.2634H21.0779V55.0163Z" fill="#E0E0E0"/>
<path d="M33.9462 43.4438H35.1892V49.8895H33.9462V47.2192H31.243V49.8895H30V43.4438H31.243V45.9669H33.9462V43.4438Z" fill="white"/>
<path d="M40.5958 44.6961H37.7535V45.9945H40.3611V47.2468H37.7535V48.6372H40.5958V49.8895H36.5105V43.4438H40.5958V44.6961Z" fill="white"/>
<path d="M41.5866 49.8895V43.4438H42.8295V49.8895H41.5866Z" fill="white"/>
<path d="M47.0621 50C46.1581 50 45.4077 49.6839 44.8108 49.0516C44.214 48.4131 43.9156 47.6182 43.9156 46.6667C43.9156 45.7152 44.214 44.9233 44.8108 44.291C45.4077 43.6526 46.1581 43.3333 47.0621 43.3333C47.7806 43.3333 48.4036 43.5482 48.9309 43.9779C49.464 44.4015 49.8204 44.9601 50 45.6538H48.6701C48.5252 45.3161 48.3108 45.0553 48.0269 44.8711C47.7488 44.6808 47.4243 44.5856 47.0534 44.5856C46.4971 44.5856 46.0422 44.7821 45.6887 45.175C45.3411 45.5617 45.1672 46.0589 45.1672 46.6667C45.1672 47.2744 45.3411 47.7747 45.6887 48.1676C46.0422 48.5543 46.4971 48.7477 47.0534 48.7477C47.4243 48.7477 47.7488 48.6556 48.0269 48.4715C48.3108 48.2812 48.5252 48.0172 48.6701 47.6796H50C49.8204 48.3732 49.464 48.9349 48.9309 49.3646C48.4036 49.7882 47.7806 50 47.0621 50Z" fill="white"/>
</svg>
