<svg width="80" height="80" viewBox="0 0 80 80" fill="none" xmlns="http://www.w3.org/2000/svg">
<circle cx="40" cy="40" r="40" fill="#8637D5" fill-opacity="0.3"/>
<path d="M58.9479 25.8922C58.9479 25.6373 58.8465 25.3927 58.6662 25.2124L49.1066 15.6528C48.9263 15.4725 48.6817 15.3711 48.4268 15.3711H22.0402C21.7852 15.3711 21.5406 15.4724 21.3603 15.6527C21.18 15.833 21.0787 16.0776 21.0787 16.3326V63.6403C21.0787 63.8953 21.18 64.1399 21.3603 64.3202C21.5406 64.5006 21.7852 64.6019 22.0402 64.6019H57.9864C58.2414 64.6019 58.486 64.5006 58.6663 64.3202C58.8466 64.1399 58.9479 63.8953 58.9479 63.6403V25.8922Z" fill="#F1F1F1"/>
<path d="M58.9161 25.6528C58.8742 25.4861 58.7878 25.3339 58.6661 25.2124L49.1065 15.6528C48.9262 15.4725 48.6817 15.3711 48.4267 15.3711V24.498C48.4267 24.804 48.5483 25.0975 48.7646 25.3139C48.981 25.5303 49.2745 25.6519 49.5805 25.6519L58.9161 25.6528Z" fill="#CCCCCC"/>
<path d="M58.9164 25.6542H49.5818C49.2757 25.6542 48.9823 25.5326 48.7659 25.3162C48.5495 25.0998 48.4279 24.8063 48.4279 24.5003V25.4763C48.4279 26.1138 48.8241 26.9186 49.6183 26.9186H58.9452V25.8936C58.9514 25.8127 58.9416 25.7313 58.9164 25.6542V25.6542Z" fill="#E8E8E8"/>
<path d="M21.078 36.0905L18.4808 38.6953H21.078V36.0905Z" fill="#521E86"/>
<path d="M58.9162 36.0905L61.5143 38.6953H58.9162V36.0905Z" fill="#521E86"/>
<path d="M60.7798 55.0153H19.2202C18.9652 55.0153 18.7206 54.914 18.5403 54.7336C18.36 54.5533 18.2587 54.3088 18.2587 54.0537V39.3095C18.2587 39.0545 18.36 38.8099 18.5403 38.6296C18.7206 38.4493 18.9652 38.348 19.2202 38.348H60.7798C61.0348 38.348 61.2794 38.4493 61.4597 38.6296C61.6401 38.8099 61.7414 39.0545 61.7414 39.3095V54.0528C61.7415 54.1791 61.7167 54.3043 61.6684 54.421C61.6202 54.5378 61.5494 54.6439 61.4601 54.7333C61.3708 54.8227 61.2647 54.8936 61.148 54.942C61.0313 54.9904 60.9062 55.0153 60.7798 55.0153V55.0153Z" fill="#8637D5"/>
<path d="M21.0779 55.0163H58.9481V56.2634H21.0779V55.0163Z" fill="#E0E0E0"/>
<path d="M31.2742 43.3333H32.7255V50H31.2742V47.2381H28.118V50H26.6667V43.3333H28.118V45.9429H31.2742V43.3333Z" fill="white"/>
<path d="M39.3225 43.3333V44.6286H37.2724V50H35.8211V44.6286H33.7812V43.3333H39.3225Z" fill="white"/>
<path d="M45.6306 43.3333H47.3051V50H45.8539V45.2191L43.8748 48.0286H43.7429L41.774 45.2191V50H40.3228V43.3333H41.9872L43.8139 45.8952L45.6306 43.3333Z" fill="white"/>
<path d="M50.2887 48.7048H53.3334V50H48.8374V43.3333H50.2887V48.7048Z" fill="white"/>
</svg>
