<svg width="24" height="24" viewBox="0 0 24 24" fill="none" xmlns="http://www.w3.org/2000/svg">
<path d="M17.5 7C16.3 7 15.1667 7.52045 14.3583 8.42193L8.5 14.2212C7.96667 14.816 7.25833 15.1413 6.5 15.1413C4.94167 15.1413 3.675 13.7379 3.675 12C3.675 10.2621 4.94167 8.85874 6.5 8.85874C7.25833 8.85874 7.96667 9.18401 8.53333 9.81599L9.12329 10.3982C9.3182 10.5906 9.63159 10.5904 9.82623 10.3977L10.3729 9.85668C10.5712 9.66051 10.5706 9.34009 10.3716 9.14464L9.68333 8.4684C8.83333 7.52045 7.7 7 6.5 7C4.01667 7 2 9.24907 2 12C2 14.7509 4.01667 17 6.5 17C7.7 17 8.83333 16.4796 9.64167 15.5781L15.5 9.77881C16.0333 9.18401 16.7417 8.85874 17.5 8.85874C19.0583 8.85874 20.325 10.2621 20.325 12C20.325 13.7379 19.0583 15.1413 17.5 15.1413C16.75 15.1413 16.0333 14.816 15.4667 14.184L14.8684 13.5929C14.6735 13.4003 14.36 13.4004 14.1652 13.5932L13.6185 14.1342C13.4204 14.3303 13.4209 14.6506 13.6197 14.8461L14.3167 15.5316C15.1667 16.4703 16.2917 16.9907 17.5 16.9907C19.9833 16.9907 22 14.7509 22 11.9907C22 9.23048 19.9833 7 17.5 7Z" fill="white"/>
</svg>
