<svg width="80" height="80" viewBox="0 0 80 80" fill="none" xmlns="http://www.w3.org/2000/svg">
<circle cx="40" cy="40" r="40" fill="#FAAF3A" fill-opacity="0.3"/>
<g clip-path="url(#clip0_47_5737)">
<path d="M58.948 25.8933C58.9479 25.6383 58.8466 25.3938 58.6662 25.2135L49.1066 15.6539C48.9263 15.4735 48.6818 15.3722 48.4268 15.3721H22.0403C21.7853 15.3721 21.5407 15.4734 21.3604 15.6538C21.18 15.8341 21.0787 16.0787 21.0787 16.3337V63.6414C21.0787 63.8964 21.18 64.141 21.3604 64.3213C21.5407 64.5016 21.7853 64.6029 22.0403 64.6029H57.9864C58.2414 64.6029 58.486 64.5016 58.6663 64.3213C58.8467 64.141 58.948 63.8964 58.948 63.6414V25.8933Z" fill="#F1F1F1"/>
<path d="M58.9162 25.654C58.8742 25.4873 58.7878 25.335 58.6662 25.2136L49.1066 15.654C48.9263 15.4736 48.6818 15.3723 48.4268 15.3722V24.4992C48.4268 24.8052 48.5483 25.0987 48.7647 25.315C48.9811 25.5314 49.2746 25.653 49.5806 25.653L58.9162 25.654Z" fill="#CCCCCC"/>
<path d="M58.9165 25.654H49.5819C49.2759 25.654 48.9824 25.5324 48.766 25.316C48.5496 25.0996 48.428 24.8061 48.428 24.5001V25.4761C48.428 26.1136 48.8242 26.9184 49.6184 26.9184H58.9454V25.8934C58.9515 25.8125 58.9417 25.7311 58.9165 25.654V25.654Z" fill="#E8E8E8"/>
<path d="M21.078 36.0905L18.4809 38.6953H21.078V36.0905Z" fill="#DD9536"/>
<path d="M58.9164 36.0905L61.5145 38.6953H58.9164V36.0905Z" fill="#DD9536"/>
<path d="M60.78 55.0164H19.2204C18.9654 55.0164 18.7208 54.9151 18.5405 54.7348C18.3602 54.5545 18.2589 54.3099 18.2589 54.0549V39.3107C18.2589 39.0556 18.3602 38.8111 18.5405 38.6308C18.7208 38.4504 18.9654 38.3491 19.2204 38.3491H60.78C61.035 38.3491 61.2796 38.4504 61.4599 38.6308C61.6402 38.8111 61.7415 39.0556 61.7415 39.3107V54.0539C61.7417 54.1803 61.7169 54.3054 61.6686 54.4222C61.6204 54.5389 61.5496 54.6451 61.4603 54.7344C61.371 54.8238 61.2649 54.8947 61.1482 54.9431C61.0315 54.9915 60.9064 55.0164 60.78 55.0164V55.0164Z" fill="#FAAF3A"/>
<path d="M31.1586 49.9666C31.1513 49.8765 31.1621 49.786 31.1901 49.7002C31.2182 49.6143 31.263 49.5349 31.322 49.4666C31.4316 49.3579 31.6047 49.2964 31.8422 49.2839L32.1691 49.2646C32.2517 49.2664 32.3336 49.2501 32.4092 49.2169C32.4847 49.1837 32.5521 49.1343 32.6066 49.0723C32.7125 48.933 32.7653 48.7605 32.7557 48.5858V44.656C32.7504 44.5401 32.769 44.4244 32.8104 44.3161C32.8517 44.2077 32.9149 44.109 32.9961 44.0262C33.084 43.9453 33.1872 43.8827 33.2997 43.8423C33.4121 43.8018 33.5315 43.7843 33.6509 43.7906C33.7677 43.7857 33.8844 43.804 33.9941 43.8445C34.1039 43.8849 34.2045 43.9467 34.2903 44.0262C34.3728 44.1082 34.4373 44.2067 34.4795 44.3151C34.5217 44.4236 34.5408 44.5397 34.5355 44.656V48.5579C34.5355 49.1989 34.3672 49.6977 34.0307 50.0541C33.6941 50.4105 33.1922 50.6111 32.5249 50.656L32.2172 50.6752C31.5114 50.7092 31.1586 50.473 31.1586 49.9666V49.9666Z" fill="white"/>
<path d="M36.0029 50.4425C35.9233 50.3578 35.8616 50.2579 35.8215 50.1489C35.7813 50.0399 35.7636 49.9239 35.7692 49.8078V44.6559C35.7566 44.5455 35.7691 44.4337 35.8058 44.3289C35.8424 44.224 35.9022 44.1287 35.9808 44.0502C36.0593 43.9716 36.1546 43.9118 36.2595 43.8752C36.3643 43.8385 36.4761 43.826 36.5865 43.8386H39.049C39.8003 43.8386 40.3839 44.0293 40.8 44.4107C41.216 44.7921 41.4246 45.3229 41.4259 46.003C41.4259 46.6761 41.2157 47.2053 40.7952 47.5905C40.3746 47.9758 39.7926 48.1681 39.049 48.1675H37.5394V49.8021C37.5453 49.9194 37.527 50.0368 37.4857 50.1468C37.4443 50.2568 37.3808 50.3571 37.299 50.4415C37.2112 50.5227 37.1081 50.5855 36.9956 50.6261C36.8831 50.6667 36.7636 50.6844 36.6442 50.678C36.5269 50.6844 36.4096 50.6667 36.2993 50.6262C36.189 50.5857 36.0882 50.5232 36.0029 50.4425V50.4425ZM38.8067 46.8405C39.1346 46.8405 39.3759 46.7723 39.5336 46.6377C39.6913 46.503 39.7692 46.2953 39.7692 46.0127C39.7692 45.455 39.4487 45.1761 38.8077 45.1761H37.5384V46.8405H38.8067Z" fill="white"/>
<path d="M48.1142 46.9704C48.1773 47.0319 48.2267 47.1062 48.259 47.1882C48.2913 47.2703 48.3059 47.3582 48.3017 47.4463V49.1204C48.3096 49.3676 48.2853 49.6149 48.2296 49.8559C48.1894 50.0139 48.0982 50.1542 47.97 50.255C47.7995 50.3722 47.6088 50.4569 47.4075 50.505C47.1336 50.5737 46.8554 50.6238 46.5748 50.655C46.2924 50.6886 46.0083 50.7062 45.7238 50.7079C44.9867 50.7079 44.3456 50.5681 43.8008 50.2886C43.2716 50.0244 42.8356 49.6051 42.5508 49.0867C42.2623 48.5636 42.1181 47.9431 42.1181 47.2252C42.1024 46.5842 42.2514 45.9499 42.5508 45.3829C42.8323 44.8669 43.2611 44.4465 43.7825 44.1752C44.3603 43.8825 45.0014 43.7372 45.6488 43.7521C46.0569 43.7466 46.4637 43.8 46.8565 43.9107C47.2126 44.017 47.5488 44.181 47.8517 44.3963C47.9485 44.4604 48.0291 44.5459 48.0873 44.6463C48.1393 44.7544 48.1641 44.8736 48.1594 44.9934C48.165 45.1755 48.1072 45.3539 47.996 45.4982C47.9513 45.5615 47.8923 45.6132 47.8238 45.6491C47.7552 45.6851 47.6791 45.7042 47.6017 45.705C47.5117 45.7072 47.422 45.6925 47.3373 45.6617C47.2388 45.6199 47.1439 45.5701 47.0537 45.5127C46.8406 45.3945 46.6148 45.3009 46.3806 45.2338C46.1596 45.1745 45.9315 45.1454 45.7027 45.1473C45.0931 45.1473 44.6392 45.3171 44.3411 45.6569C44.0431 45.9966 43.894 46.5194 43.894 47.2252C43.894 47.9502 44.0495 48.4873 44.3604 48.8367C44.6713 49.1861 45.1476 49.3607 45.7892 49.3607C46.0963 49.361 46.4024 49.3288 46.7027 49.2646V48.004H46.0104C45.8327 48.0154 45.6573 47.9587 45.52 47.8454C45.4087 47.723 45.347 47.5636 45.347 47.3982C45.347 47.2329 45.4087 47.0734 45.52 46.9511C45.6572 46.8375 45.8326 46.7804 46.0104 46.7915H47.5979C47.6915 46.7852 47.7855 46.7978 47.8742 46.8285C47.9629 46.8593 48.0445 46.9075 48.1142 46.9704V46.9704Z" fill="white"/>
<path d="M21.0779 55.0164H58.9481V56.2635H21.0779V55.0164Z" fill="#E0E0E0"/>
</g>
<defs>
<clipPath id="clip0_47_5737">
<rect width="49.2308" height="49.2308" fill="white" transform="translate(15.3846 15.3847)"/>
</clipPath>
</defs>
</svg>
