<svg width="24" height="24" viewBox="0 0 24 24" fill="none" xmlns="http://www.w3.org/2000/svg">
<path d="M2 8H4L10.2622 10.7397C11.2241 11.1605 11.6664 12.2784 11.2528 13.2434V13.2434C10.837 14.2136 9.71355 14.663 8.74342 14.2472L7 13.5" stroke="white" stroke-width="1.2" stroke-linecap="round" stroke-linejoin="round"/>
<path d="M2.26833 16.4633C1.97194 16.3152 1.61154 16.4353 1.46334 16.7317C1.31515 17.0281 1.43528 17.3885 1.73167 17.5367L2.26833 16.4633ZM11.2683 13.4633L10.7317 13.195L10.195 14.2683L10.7317 14.5367L11.2683 13.4633ZM13.7331 15.3666L13.4648 15.9032L13.7331 15.3666ZM16.4164 16.6H18V15.4H16.4164V16.6ZM18 19.4H9.88854V20.6H18V19.4ZM6.57916 18.6188L2.26833 16.4633L1.73167 17.5367L6.04251 19.6921L6.57916 18.6188ZM14.0015 14.8299L11.2683 13.4633L10.7317 14.5367L13.4648 15.9032L14.0015 14.8299ZM9.88854 19.4C8.73973 19.4 7.60669 19.1325 6.57916 18.6188L6.04251 19.6921C7.23666 20.2892 8.55344 20.6 9.88854 20.6V19.4ZM19.4 18C19.4 18.7732 18.7732 19.4 18 19.4V20.6C19.4359 20.6 20.6 19.4359 20.6 18H19.4ZM18 16.6C18.7732 16.6 19.4 17.2268 19.4 18H20.6C20.6 16.5641 19.4359 15.4 18 15.4V16.6ZM16.4164 15.4C15.5781 15.4 14.7513 15.2048 14.0015 14.8299L13.4648 15.9032C14.3812 16.3614 15.3918 16.6 16.4164 16.6V15.4Z" fill="white"/>
<path d="M12.6083 8.51043L15.4383 12.0478C16.2389 13.0486 17.7611 13.0486 18.5617 12.0478L21.3917 8.51043C21.7855 8.01818 22 7.40656 22 6.77617V6.65165C22 5.18718 20.8128 4 19.3484 4H19.0509C18.5381 4 18.0463 4.20372 17.6836 4.56635C17.3061 4.94392 16.6939 4.94392 16.3164 4.56635C15.9537 4.20372 15.4619 4 14.9491 4H14.6517C13.1872 4 12 5.18718 12 6.65165V6.77617C12 7.40656 12.2145 8.01818 12.6083 8.51043Z" stroke="white" stroke-width="1.2" stroke-linejoin="round"/>
</svg>
