<svg width="24" height="24" viewBox="0 0 24 24" fill="none" xmlns="http://www.w3.org/2000/svg">
<path opacity="0.4" fill-rule="evenodd" clip-rule="evenodd" d="M18.9565 7.21741C19.6769 7.21741 20.2609 7.80138 20.2609 8.52176L20.2609 15.4783C20.2609 16.1987 19.6769 16.7826 18.9565 16.7826C18.2361 16.7826 17.6522 16.1987 17.6522 15.4783L17.6522 8.52176C17.6522 7.80138 18.2361 7.21741 18.9565 7.21741Z" fill="white"/>
<path fill-rule="evenodd" clip-rule="evenodd" d="M12 2C12.7203 2 13.3043 2.58398 13.3043 3.30435L13.3043 20.6957C13.3043 21.416 12.7203 22 12 22C11.2796 22 10.6956 21.416 10.6956 20.6957L10.6956 3.30435C10.6956 2.58398 11.2796 2 12 2Z" fill="white"/>
<path opacity="0.4" fill-rule="evenodd" clip-rule="evenodd" d="M5.04343 7.21741C5.7638 7.21741 6.34778 7.80138 6.34778 8.52176L6.34778 15.4783C6.34778 16.1987 5.7638 16.7826 5.04343 16.7826C4.32306 16.7826 3.73908 16.1987 3.73908 15.4783L3.73908 8.52176C3.73908 7.80138 4.32306 7.21741 5.04343 7.21741Z" fill="white"/>
</svg>
