<svg width="80" height="80" viewBox="0 0 80 80" fill="none" xmlns="http://www.w3.org/2000/svg">
<circle cx="40" cy="40" r="40" fill="#465DDA" fill-opacity="0.3"/>
<path d="M58.9479 25.8922C58.9479 25.6373 58.8465 25.3927 58.6662 25.2124L49.1066 15.6528C48.9263 15.4725 48.6817 15.3711 48.4268 15.3711H22.0402C21.7852 15.3711 21.5406 15.4724 21.3603 15.6527C21.18 15.833 21.0787 16.0776 21.0787 16.3326V63.6403C21.0787 63.8953 21.18 64.1399 21.3603 64.3202C21.5406 64.5006 21.7852 64.6019 22.0402 64.6019H57.9864C58.2414 64.6019 58.486 64.5006 58.6663 64.3202C58.8466 64.1399 58.9479 63.8953 58.9479 63.6403V25.8922Z" fill="#F1F1F1"/>
<path d="M58.9161 25.6528C58.8742 25.4861 58.7878 25.3339 58.6661 25.2124L49.1065 15.6528C48.9262 15.4725 48.6817 15.3711 48.4267 15.3711V24.498C48.4267 24.804 48.5483 25.0975 48.7646 25.3139C48.981 25.5303 49.2745 25.6519 49.5805 25.6519L58.9161 25.6528Z" fill="#CCCCCC"/>
<path d="M58.9164 25.6542H49.5818C49.2757 25.6542 48.9823 25.5326 48.7659 25.3162C48.5495 25.0998 48.4279 24.8063 48.4279 24.5003V25.4763C48.4279 26.1138 48.8241 26.9186 49.6183 26.9186H58.9452V25.8936C58.9514 25.8127 58.9416 25.7313 58.9164 25.6542V25.6542Z" fill="#E8E8E8"/>
<path d="M21.078 36.0905L18.4808 38.6953H21.078V36.0905Z" fill="#1B2B82"/>
<path d="M58.9162 36.0905L61.5143 38.6953H58.9162V36.0905Z" fill="#1B2B82"/>
<path d="M60.7798 55.0153H19.2202C18.9652 55.0153 18.7206 54.914 18.5403 54.7336C18.36 54.5533 18.2587 54.3088 18.2587 54.0537V39.3095C18.2587 39.0545 18.36 38.8099 18.5403 38.6296C18.7206 38.4493 18.9652 38.348 19.2202 38.348H60.7798C61.0348 38.348 61.2794 38.4493 61.4597 38.6296C61.6401 38.8099 61.7414 39.0545 61.7414 39.3095V54.0528C61.7415 54.1791 61.7167 54.3043 61.6684 54.421C61.6202 54.5378 61.5494 54.6439 61.4601 54.7333C61.3708 54.8227 61.2647 54.8936 61.148 54.942C61.0313 54.9904 60.9062 55.0153 60.7798 55.0153V55.0153Z" fill="#465DDA"/>
<path d="M21.0779 55.0163H58.9481V56.2634H21.0779V55.0163Z" fill="#E0E0E0"/>
<path d="M31.0025 44.291C31.6772 43.6526 32.5126 43.3333 33.5086 43.3333C34.5047 43.3333 35.3401 43.6526 36.0148 44.291C36.6896 44.9294 37.0269 45.7213 37.0269 46.6667C37.0269 47.612 36.6896 48.4039 36.0148 49.0424C35.3401 49.6808 34.5047 50 33.5086 50C32.5126 50 31.6772 49.6808 31.0025 49.0424C30.3342 48.4039 30 47.612 30 46.6667C30 45.7213 30.3342 44.9294 31.0025 44.291ZM35.022 45.175C34.6236 44.7821 34.1191 44.5856 33.5086 44.5856C32.8982 44.5856 32.3905 44.7821 31.9857 45.175C31.5872 45.5678 31.388 46.0651 31.388 46.6667C31.388 47.2683 31.5872 47.7655 31.9857 48.1584C32.3905 48.5513 32.8982 48.7477 33.5086 48.7477C34.1191 48.7477 34.6236 48.5513 35.022 48.1584C35.4268 47.7655 35.6293 47.2683 35.6293 46.6667C35.6293 46.0651 35.4268 45.5678 35.022 45.175Z" fill="white"/>
<path d="M40.635 43.4438C41.6182 43.4438 42.4375 43.7508 43.093 44.3646C43.7548 44.9785 44.0858 45.7459 44.0858 46.6667C44.0858 47.5875 43.7548 48.3548 43.093 48.9687C42.4375 49.5826 41.6182 49.8895 40.635 49.8895H38.1963V43.4438H40.635ZM40.635 48.6372C41.2455 48.6372 41.7435 48.453 42.129 48.0847C42.5146 47.7164 42.7074 47.2437 42.7074 46.6667C42.7074 46.0896 42.5146 45.6169 42.129 45.2486C41.7435 44.8803 41.2455 44.6961 40.635 44.6961H39.5747V48.6372H40.635Z" fill="white"/>
<path d="M50 43.4438V44.6961H48.0529V49.8895H46.6745V44.6961H44.737V43.4438H50Z" fill="white"/>
</svg>
