<svg width="80" height="80" viewBox="0 0 80 80" fill="none" xmlns="http://www.w3.org/2000/svg">
<circle cx="40" cy="40" r="40" fill="#F15642" fill-opacity="0.3"/>
<path d="M59.1493 25.9065C59.1493 25.6515 59.0479 25.407 58.8676 25.2267L49.308 15.6671C49.1277 15.4867 48.8832 15.3854 48.6282 15.3853H22.2416C21.9866 15.3853 21.742 15.4866 21.5617 15.667C21.3814 15.8473 21.2801 16.0919 21.2801 16.3469V63.6546C21.2801 63.9096 21.3814 64.1542 21.5617 64.3345C21.742 64.5148 21.9866 64.6161 22.2416 64.6161H58.1878C58.4428 64.6161 58.6874 64.5148 58.8677 64.3345C59.048 64.1542 59.1493 63.9096 59.1493 63.6546V25.9065Z" fill="#F1F1F1"/>
<path d="M59.1133 25.6671C59.0713 25.5004 58.9849 25.3482 58.8633 25.2267L49.3036 15.6671C49.1234 15.4867 48.8788 15.3854 48.6238 15.3853V24.5123C48.6238 24.8183 48.7454 25.1118 48.9618 25.3281C49.1782 25.5445 49.4717 25.6661 49.7777 25.6661L59.1133 25.6671Z" fill="#CCCCCC"/>
<path d="M59.1187 25.6679H49.7839C49.4778 25.6679 49.1844 25.5463 48.968 25.3299C48.7516 25.1136 48.63 24.8201 48.63 24.5141V25.49C48.63 26.1275 49.0262 26.9323 49.8204 26.9323H59.1475V25.9073C59.1536 25.8264 59.1438 25.7451 59.1187 25.6679V25.6679Z" fill="#E8E8E8"/>
<path d="M21.2753 36.102L18.6782 38.7068H21.2753V36.102Z" fill="#A93A2C"/>
<path d="M59.1166 36.102L61.7147 38.7068H59.1166V36.102Z" fill="#A93A2C"/>
<path d="M60.9827 55.0278H19.4231C19.1681 55.0278 18.9235 54.9265 18.7432 54.7462C18.5629 54.5658 18.4615 54.3213 18.4615 54.0663V39.3224C18.4615 39.0674 18.5629 38.8228 18.7432 38.6425C18.9235 38.4621 19.1681 38.3608 19.4231 38.3608H60.9827C61.2377 38.3608 61.4823 38.4621 61.6626 38.6425C61.8429 38.8228 61.9442 39.0674 61.9442 39.3224V54.0653C61.9444 54.1917 61.9196 54.3168 61.8713 54.4336C61.8231 54.5503 61.7523 54.6564 61.663 54.7458C61.5737 54.8352 61.4676 54.9061 61.3509 54.9545C61.2342 55.0029 61.1091 55.0278 60.9827 55.0278V55.0278Z" fill="#F15642"/>
<path d="M21.2801 55.0287H59.1503V56.2758H21.2801V55.0287Z" fill="#E0E0E0"/>
<path d="M31.3821 50.4506C31.3016 50.3655 31.2392 50.2649 31.1987 50.155C31.1582 50.0451 31.1405 49.9281 31.1465 49.8111V44.6637C31.1339 44.5532 31.1464 44.4413 31.1831 44.3364C31.2198 44.2314 31.2797 44.1361 31.3584 44.0575C31.437 43.9789 31.5324 43.9191 31.6374 43.8826C31.7424 43.846 31.8543 43.8336 31.9648 43.8464H34.4302C35.1802 43.8464 35.7638 44.0371 36.1811 44.4185C36.5984 44.7999 36.8068 45.3307 36.8061 46.0109C36.8061 46.684 36.5962 47.2132 36.1763 47.5985C35.7564 47.9838 35.1744 48.1761 34.4302 48.1754H32.9167V49.8101C32.9229 49.9275 32.9047 50.0449 32.8633 50.155C32.822 50.265 32.7583 50.3653 32.6763 50.4496C32.5887 50.5307 32.4857 50.5935 32.3734 50.6341C32.2611 50.6747 32.1417 50.6924 32.0225 50.6862C31.9053 50.6923 31.7882 50.6746 31.6781 50.6341C31.568 50.5936 31.4673 50.5312 31.3821 50.4506V50.4506ZM34.1869 46.8484C34.5138 46.8484 34.7561 46.7802 34.9129 46.6455C35.0696 46.5109 35.1484 46.3032 35.1484 46.0205C35.1484 45.4628 34.8279 45.1839 34.1869 45.1839H32.9167V46.8484H34.1869Z" fill="white"/>
<path d="M37.8666 50.417C37.7923 50.3355 37.7352 50.2399 37.6988 50.1358C37.6625 50.0316 37.6476 49.9212 37.6551 49.8112V44.6641C37.6425 44.5537 37.655 44.4419 37.6916 44.337C37.7282 44.2322 37.7881 44.1369 37.8666 44.0583C37.9452 43.9798 38.0404 43.92 38.1453 43.8833C38.2502 43.8467 38.362 43.8342 38.4723 43.8468H40.4155C41.1654 43.8468 41.8116 43.983 42.3538 44.2555C42.8789 44.5102 43.3146 44.9178 43.6038 45.4247C43.8922 45.9317 44.0364 46.5346 44.0364 47.2333C44.0364 47.9321 43.8938 48.541 43.6086 49.0603C43.325 49.5682 42.8915 49.9762 42.3673 50.2285C41.825 50.4978 41.1757 50.6327 40.4193 50.6333H38.4723C38.362 50.6401 38.2514 50.6244 38.1473 50.5873C38.0432 50.5501 37.9477 50.4921 37.8666 50.417V50.417ZM40.2905 49.2055C40.9514 49.2055 41.4468 49.0433 41.7769 48.7189C42.1071 48.3946 42.2721 47.8994 42.2721 47.2333C42.2721 46.566 42.1071 46.0721 41.7769 45.7516C41.4468 45.4311 40.9514 45.2708 40.2905 45.2708H39.4252V49.2055H40.2905Z" fill="white"/>
<path d="M45.3362 50.446C45.2548 50.3623 45.1914 50.2628 45.1499 50.1536C45.1084 50.0445 45.0897 49.928 45.0949 49.8114V44.6641C45.0825 44.5537 45.0951 44.4419 45.1319 44.337C45.1686 44.2321 45.2285 44.1369 45.3071 44.0583C45.3858 43.9798 45.4811 43.92 45.586 43.8834C45.6909 43.8467 45.8027 43.8342 45.9131 43.8468H49.1457C49.4342 43.8468 49.6457 43.9029 49.7803 44.0151C49.9149 44.1272 49.9822 44.3051 49.9822 44.5487C49.9822 44.7859 49.9133 44.9593 49.7755 45.0689C49.638 45.1776 49.4274 45.2324 49.1457 45.2324H46.8333V46.4824H48.9486C49.2306 46.4824 49.4406 46.5401 49.5784 46.6555C49.7162 46.7709 49.7851 46.9475 49.7851 47.1853C49.7851 47.4232 49.7162 47.5962 49.5784 47.7046C49.4406 47.8129 49.2306 47.8674 48.9486 47.868H46.8333V49.8162C46.8393 49.9332 46.8216 50.0501 46.7811 50.1601C46.7406 50.27 46.6782 50.3705 46.5977 50.4556C46.4225 50.6089 46.1974 50.6931 45.9646 50.6922C45.7318 50.6913 45.5074 50.6055 45.3334 50.4508L45.3362 50.446Z" fill="white"/>
</svg>
