<svg width="80" height="80" viewBox="0 0 80 80" fill="none" xmlns="http://www.w3.org/2000/svg">
<circle cx="40" cy="40" r="40" fill="#18CC4B" fill-opacity="0.3"/>
<path d="M58.9479 25.8922C58.9479 25.6373 58.8465 25.3927 58.6662 25.2124L49.1066 15.6528C48.9263 15.4725 48.6818 15.3711 48.4268 15.3711H22.0402C21.7852 15.3711 21.5407 15.4724 21.3603 15.6527C21.18 15.833 21.0787 16.0776 21.0787 16.3326V63.6403C21.0787 63.8953 21.18 64.1399 21.3603 64.3202C21.5407 64.5006 21.7852 64.6019 22.0402 64.6019H57.9864C58.2414 64.6019 58.486 64.5006 58.6663 64.3202C58.8466 64.1399 58.9479 63.8953 58.9479 63.6403V25.8922Z" fill="#F1F1F1"/>
<path d="M58.9162 25.6528C58.8742 25.4861 58.7878 25.3339 58.6661 25.2124L49.1065 15.6528C48.9263 15.4725 48.6817 15.3711 48.4267 15.3711V24.498C48.4267 24.804 48.5483 25.0975 48.7647 25.3139C48.9811 25.5303 49.2746 25.6519 49.5806 25.6519L58.9162 25.6528Z" fill="#CCCCCC"/>
<path d="M58.9164 25.6542H49.5818C49.2758 25.6542 48.9823 25.5326 48.7659 25.3162C48.5495 25.0998 48.4279 24.8063 48.4279 24.5003V25.4763C48.4279 26.1138 48.8241 26.9186 49.6183 26.9186H58.9453V25.8936C58.9514 25.8127 58.9416 25.7313 58.9164 25.6542V25.6542Z" fill="#E8E8E8"/>
<path d="M21.078 36.0905L18.4808 38.6953H21.078V36.0905Z" fill="#13712D"/>
<path d="M58.9162 36.0905L61.5143 38.6953H58.9162V36.0905Z" fill="#13712D"/>
<path d="M60.7798 55.0153H19.2202C18.9652 55.0153 18.7206 54.914 18.5403 54.7336C18.36 54.5533 18.2587 54.3088 18.2587 54.0537V39.3095C18.2587 39.0545 18.36 38.8099 18.5403 38.6296C18.7206 38.4493 18.9652 38.348 19.2202 38.348H60.7798C61.0348 38.348 61.2794 38.4493 61.4597 38.6296C61.6401 38.8099 61.7414 39.0545 61.7414 39.3095V54.0528C61.7415 54.1791 61.7167 54.3043 61.6684 54.421C61.6202 54.5378 61.5494 54.6439 61.4601 54.7333C61.3708 54.8227 61.2647 54.8936 61.148 54.942C61.0313 54.9904 60.9062 55.0153 60.7798 55.0153V55.0153Z" fill="#18CC4B"/>
<path d="M21.0779 55.0163H58.9481V56.2634H21.0779V55.0163Z" fill="#E0E0E0"/>
<path d="M32.8252 43.4438C33.5555 43.4438 34.1353 43.6372 34.5645 44.0239C35.0001 44.4107 35.218 44.9386 35.218 45.6077C35.218 46.283 35.0001 46.8201 34.5645 47.2192C34.1289 47.612 33.5491 47.8085 32.8252 47.8085H31.3742V49.8895H30V43.4438H32.8252ZM32.7675 46.5562C33.1135 46.5562 33.3761 46.4733 33.5555 46.3076C33.7349 46.1418 33.8246 45.9147 33.8246 45.6262C33.8246 45.3315 33.7349 45.1044 33.5555 44.9448C33.3761 44.779 33.1135 44.6961 32.7675 44.6961H31.3742V46.5562H32.7675Z" fill="white"/>
<path d="M40.7152 43.4438H42.0894V49.8895H40.5038L37.5825 45.3775L37.7074 47.1915V49.8895H36.3333V43.4438H37.9092L40.8401 47.9558L40.7152 46.1418V43.4438Z" fill="white"/>
<path d="M46.3196 46.3904H50V49.8895H48.8276V48.8029C48.6675 49.159 48.3856 49.4475 47.982 49.6685C47.5848 49.8895 47.1107 50 46.5598 50C45.6117 50 44.8173 49.6869 44.1766 49.0608C43.536 48.4285 43.2157 47.6335 43.2157 46.6759C43.2157 45.7121 43.5424 44.9141 44.1959 44.2818C44.8557 43.6495 45.6885 43.3333 46.6943 43.3333C47.4887 43.3333 48.1774 43.5421 48.7604 43.9595C49.3498 44.3708 49.7437 44.911 49.9423 45.5801H48.4721C48.3119 45.267 48.0749 45.0246 47.761 44.8527C47.4535 44.6746 47.0947 44.5856 46.6847 44.5856C46.0633 44.5856 45.5604 44.7821 45.176 45.175C44.7916 45.5678 44.5995 46.0743 44.5995 46.6943C44.5995 47.2959 44.782 47.7962 45.1472 48.1952C45.5188 48.5881 46.0249 48.7845 46.6655 48.7845C47.1332 48.7845 47.54 48.671 47.8859 48.4438C48.2319 48.2167 48.4625 47.9006 48.5778 47.4954H46.3196V46.3904Z" fill="white"/>
</svg>
