<svg width="80" height="80" viewBox="0 0 80 80" fill="none" xmlns="http://www.w3.org/2000/svg">
<circle cx="40" cy="40" r="40" fill="#C8421D" fill-opacity="0.3"/>
<path d="M58.948 25.9065C58.9479 25.6515 58.8466 25.407 58.6662 25.2267L49.1066 15.6671C48.9263 15.4867 48.6818 15.3854 48.4268 15.3853H22.0403C21.7853 15.3853 21.5407 15.4866 21.3604 15.667C21.18 15.8473 21.0787 16.0918 21.0787 16.3469V63.6546C21.0787 63.9096 21.18 64.1541 21.3604 64.3345C21.5407 64.5148 21.7853 64.6161 22.0403 64.6161H57.9864C58.2414 64.6161 58.486 64.5148 58.6663 64.3345C58.8467 64.1541 58.948 63.9096 58.948 63.6546V25.9065Z" fill="#F1F1F1"/>
<path d="M58.9162 25.6676C58.8743 25.5009 58.7879 25.3487 58.6662 25.2272L49.1066 15.6676C48.9263 15.4872 48.6818 15.3859 48.4268 15.3858V24.5128C48.4268 24.8188 48.5484 25.1123 48.7648 25.3286C48.9812 25.545 49.2746 25.6666 49.5807 25.6666L58.9162 25.6676Z" fill="#CCCCCC"/>
<path d="M58.9166 25.6676H49.5819C49.2759 25.6676 48.9824 25.546 48.7661 25.3296C48.5497 25.1132 48.4281 24.8198 48.4281 24.5137V25.4897C48.4281 26.1272 48.8243 26.932 49.6185 26.932H58.9454V25.907C58.9515 25.8261 58.9417 25.7447 58.9166 25.6676V25.6676Z" fill="#E8E8E8"/>
<path d="M21.078 36.1041L18.4809 38.7089H21.078V36.1041Z" fill="#7E2D16"/>
<path d="M58.9164 36.1041L61.5145 38.7089H58.9164V36.1041Z" fill="#7E2D16"/>
<path d="M60.9827 55.1425H19.4231C19.1681 55.1425 18.9235 55.0412 18.7432 54.8609C18.5629 54.6806 18.4615 54.436 18.4615 54.181V39.4368C18.4615 39.1818 18.5629 38.9372 18.7432 38.7569C18.9235 38.5765 19.1681 38.4752 19.4231 38.4752H60.9827C61.2377 38.4752 61.4823 38.5765 61.6626 38.7569C61.8429 38.9372 61.9442 39.1818 61.9442 39.4368V54.18C61.9444 54.3064 61.9196 54.4315 61.8713 54.5483C61.8231 54.665 61.7523 54.7712 61.663 54.8605C61.5737 54.9499 61.4676 55.0208 61.3509 55.0692C61.2342 55.1176 61.1091 55.1425 60.9827 55.1425V55.1425Z" fill="#C8421D"/>
<path d="M21.078 55.0299H58.9482V56.277H21.078V55.0299Z" fill="#E0E0E0"/>
<path d="M33.7478 43.0904C34.5178 43.0904 35.1291 43.3212 35.5816 43.7827C36.0409 44.2442 36.2705 44.8743 36.2705 45.6728C36.2705 46.4787 36.0409 47.1197 35.5816 47.5959C35.1223 48.0648 34.5111 48.2992 33.7478 48.2992H32.218V50.7827H30.7692V43.0904H33.7478ZM33.6871 46.8047C34.0518 46.8047 34.3287 46.7058 34.5178 46.508C34.7069 46.3102 34.8015 46.0391 34.8015 45.6948C34.8015 45.3431 34.7069 45.0721 34.5178 44.8816C34.3287 44.6838 34.0518 44.5849 33.6871 44.5849H32.218V46.8047H33.6871Z" fill="white"/>
<path d="M40.4757 43.0904C41.2457 43.0904 41.8569 43.3212 42.3095 43.7827C42.7688 44.2442 42.9984 44.8743 42.9984 45.6728C42.9984 46.4787 42.7688 47.1197 42.3095 47.5959C41.8502 48.0648 41.2389 48.2992 40.4757 48.2992H38.9459V50.7827H37.4971V43.0904H40.4757ZM40.4149 46.8047C40.7796 46.8047 41.0566 46.7058 41.2457 46.508C41.4348 46.3102 41.5294 46.0391 41.5294 45.6948C41.5294 45.3431 41.4348 45.0721 41.2457 44.8816C41.0566 44.6838 40.7796 44.5849 40.4149 44.5849H38.9459V46.8047H40.4149Z" fill="white"/>
<path d="M49.2308 43.0904V44.5849H47.1842V50.7827H45.7354V44.5849H43.699V43.0904H49.2308Z" fill="white"/>
</svg>
