<svg width="80" height="80" viewBox="0 0 80 80" fill="none" xmlns="http://www.w3.org/2000/svg">
<circle cx="40" cy="40" r="40" fill="#3B3B4C" fill-opacity="0.3"/>
<path d="M58.9478 25.8922C58.9478 25.6373 58.8465 25.3927 58.6661 25.2124L49.1065 15.6528C48.9262 15.4725 48.6817 15.3711 48.4267 15.3711H22.0402C21.7851 15.3711 21.5406 15.4724 21.3602 15.6527C21.1799 15.833 21.0786 16.0776 21.0786 16.3326V63.6403C21.0786 63.8953 21.1799 64.1399 21.3602 64.3202C21.5406 64.5006 21.7851 64.6019 22.0402 64.6019H57.9863C58.2413 64.6019 58.4859 64.5006 58.6662 64.3202C58.8465 64.1399 58.9478 63.8953 58.9478 63.6403V25.8922Z" fill="#F1F1F1"/>
<path d="M58.9162 25.6528C58.8742 25.4861 58.7878 25.3339 58.6662 25.2124L49.1066 15.6528C48.9263 15.4725 48.6818 15.3711 48.4268 15.3711V24.498C48.4268 24.804 48.5483 25.0975 48.7647 25.3139C48.9811 25.5303 49.2746 25.6519 49.5806 25.6519L58.9162 25.6528Z" fill="#CCCCCC"/>
<path d="M58.9162 25.6541H49.5816C49.2756 25.6541 48.9821 25.5325 48.7657 25.3161C48.5493 25.0997 48.4277 24.8063 48.4277 24.5002V25.4762C48.4277 26.1137 48.8239 26.9185 49.6181 26.9185H58.9451V25.8935C58.9512 25.8126 58.9414 25.7312 58.9162 25.6541V25.6541Z" fill="#E8E8E8"/>
<path d="M21.0781 36.0906L18.481 38.6954H21.0781V36.0906Z" fill="#1C1C27"/>
<path d="M58.916 36.0906L61.5141 38.6954H58.916V36.0906Z" fill="#1C1C27"/>
<path d="M60.7799 55.0152H19.2203C18.9653 55.0152 18.7207 54.9139 18.5404 54.7336C18.3601 54.5532 18.2588 54.3087 18.2588 54.0537V39.3094C18.2588 39.0544 18.3601 38.8099 18.5404 38.6295C18.7207 38.4492 18.9653 38.3479 19.2203 38.3479H60.7799C61.035 38.3479 61.2795 38.4492 61.4599 38.6295C61.6402 38.8099 61.7415 39.0544 61.7415 39.3094V54.0527C61.7416 54.179 61.7168 54.3042 61.6686 54.4209C61.6203 54.5377 61.5495 54.6438 61.4602 54.7332C61.3709 54.8226 61.2649 54.8935 61.1481 54.9419C61.0314 54.9903 60.9063 55.0152 60.7799 55.0152V55.0152Z" fill="#3B3B4C"/>
<path d="M21.0781 55.0164H58.9483V56.2635H21.0781V55.0164Z" fill="#E0E0E0"/>
<path d="M39.215 48.116V47.4696C39.215 47.0552 39.3083 46.7486 39.4949 46.5497C39.6897 46.3425 40.0426 46.1022 40.5538 45.8287C40.9513 45.6215 41.2272 45.4392 41.3813 45.2818C41.5355 45.116 41.6126 44.8881 41.6126 44.5981C41.6126 44.2086 41.4746 43.8978 41.1988 43.6657C40.931 43.4254 40.5375 43.3052 40.0183 43.3052C39.0284 43.3052 38.4848 43.8232 38.3874 44.8591H37C37.0568 43.9309 37.3651 43.2224 37.9249 42.7334C38.4848 42.2445 39.1988 42 40.0669 42C40.927 42 41.6288 42.232 42.1724 42.6961C42.7241 43.1519 43 43.7735 43 44.5608C43 45.116 42.8621 45.547 42.5862 45.8536C42.3185 46.1602 41.9047 46.4627 41.3448 46.761C41.069 46.9102 40.8702 47.0552 40.7485 47.1961C40.6268 47.3287 40.5659 47.5069 40.5659 47.7307V48.116H39.215ZM39.8966 51C39.6369 51 39.4178 50.9171 39.2394 50.7514C39.069 50.5856 38.9838 50.3743 38.9838 50.1174C38.9838 49.8605 39.069 49.6533 39.2394 49.4959C39.4097 49.3301 39.6288 49.2472 39.8966 49.2472C40.1643 49.2472 40.3834 49.3301 40.5538 49.4959C40.7323 49.6533 40.8215 49.8605 40.8215 50.1174C40.8215 50.3743 40.7323 50.5856 40.5538 50.7514C40.3834 50.9171 40.1643 51 39.8966 51Z" fill="white"/>
</svg>
