<svg width="80" height="80" viewBox="0 0 80 80" fill="none" xmlns="http://www.w3.org/2000/svg">
<circle cx="40" cy="40" r="40" fill="#00A99D" fill-opacity="0.3"/>
<g clip-path="url(#clip0_47_5707)">
<path d="M58.9481 25.8934C58.9481 25.6384 58.8467 25.3939 58.6664 25.2136L49.1068 15.654C48.9265 15.4737 48.682 15.3723 48.427 15.3723H22.0405C21.7854 15.3723 21.5409 15.4736 21.3605 15.6539C21.1802 15.8342 21.0789 16.0788 21.0789 16.3338V63.6415C21.0789 63.8965 21.1802 64.1411 21.3605 64.3214C21.5409 64.5017 21.7854 64.603 22.0405 64.603H57.9866C58.2416 64.603 58.4862 64.5017 58.6665 64.3214C58.8468 64.1411 58.9481 63.8965 58.9481 63.6415V25.8934Z" fill="#F1F1F1"/>
<path d="M58.9163 25.654C58.8743 25.4873 58.7879 25.3351 58.6663 25.2136L49.1067 15.654C48.9264 15.4737 48.6819 15.3723 48.4269 15.3723V24.4992C48.4269 24.8052 48.5484 25.0987 48.7648 25.3151C48.9812 25.5315 49.2747 25.653 49.5807 25.653L58.9163 25.654Z" fill="#CCCCCC"/>
<path d="M58.9164 25.654H49.5818C49.2757 25.654 48.9823 25.5325 48.7659 25.3161C48.5495 25.0997 48.4279 24.8062 48.4279 24.5002V25.4761C48.4279 26.1136 48.8241 26.9184 49.6183 26.9184H58.9452V25.8934C58.9513 25.8125 58.9415 25.7312 58.9164 25.654V25.654Z" fill="#E8E8E8"/>
<path d="M21.0779 36.0905L18.4808 38.6954H21.0779V36.0905Z" fill="#008275"/>
<path d="M58.9163 36.0905L61.5143 38.6954H58.9163V36.0905Z" fill="#008275"/>
<path d="M60.7797 55.0165H19.2201C18.9651 55.0165 18.7205 54.9152 18.5402 54.7349C18.3598 54.5545 18.2585 54.31 18.2585 54.055V39.3107C18.2585 39.0557 18.3598 38.8111 18.5402 38.6308C18.7205 38.4505 18.9651 38.3492 19.2201 38.3492H60.7797C61.0347 38.3492 61.2793 38.4505 61.4596 38.6308C61.6399 38.8111 61.7412 39.0557 61.7412 39.3107V54.054C61.7414 54.1804 61.7166 54.3055 61.6683 54.4223C61.6201 54.539 61.5493 54.6451 61.46 54.7345C61.3707 54.8239 61.2646 54.8948 61.1479 54.9432C61.0312 54.9916 60.9061 55.0165 60.7797 55.0165V55.0165Z" fill="#00A99D"/>
<path d="M21.0778 55.0165H58.948V56.2636H21.0778V55.0165Z" fill="#E0E0E0"/>
<path d="M37.2585 49.8703C37.2591 49.9791 37.2366 50.0868 37.1925 50.1862C37.1485 50.2857 37.0838 50.3746 37.0028 50.4473C36.9281 50.525 36.8385 50.5868 36.7394 50.6291C36.6402 50.6714 36.5336 50.6933 36.4258 50.6934C36.3127 50.6924 36.2012 50.666 36.0997 50.6161C35.9982 50.5661 35.9092 50.494 35.8393 50.405L34.1845 48.4232L32.5008 50.405C32.4324 50.4932 32.3451 50.5649 32.2452 50.6148C32.1454 50.6648 32.0356 50.6916 31.9239 50.6934C31.8158 50.6928 31.7089 50.6702 31.6097 50.6271C31.5106 50.584 31.4212 50.5211 31.347 50.4425C31.2714 50.374 31.2101 50.2914 31.1666 50.1992C31.123 50.107 31.098 50.0072 31.0931 49.9053C31.0882 49.8035 31.1034 49.7017 31.1379 49.6058C31.1724 49.5099 31.2255 49.4217 31.2941 49.3463L33.1412 47.2107L31.3422 45.1232C31.2114 44.9809 31.1363 44.7962 31.1307 44.603C31.1306 44.4951 31.1533 44.3884 31.1972 44.2899C31.2411 44.1913 31.3052 44.1031 31.3855 44.0309C31.4615 43.9534 31.5521 43.8919 31.6522 43.8498C31.7522 43.8077 31.8596 43.7859 31.9682 43.7857C32.0813 43.7868 32.1927 43.8133 32.2942 43.8633C32.3957 43.9132 32.4848 43.9853 32.5547 44.0742L34.1807 45.9973L35.797 44.0742C35.8621 43.9848 35.9475 43.9121 36.0461 43.862C36.1447 43.8118 36.2537 43.7857 36.3643 43.7857C36.4727 43.7858 36.58 43.8076 36.6799 43.8497C36.7798 43.8918 36.8703 43.9534 36.946 44.0309C37.0263 44.1031 37.0904 44.1913 37.1343 44.2899C37.1782 44.3884 37.2009 44.4951 37.2008 44.603C37.1991 44.7952 37.1273 44.9802 36.9989 45.1232L35.2008 47.2107L37.0374 49.3463C37.1741 49.4871 37.2531 49.6741 37.2585 49.8703V49.8703Z" fill="white"/>
<path d="M38.3066 50.4088C38.1652 50.2684 38.0951 50.0627 38.0951 49.7934V44.6559C38.0896 44.5405 38.1077 44.4251 38.1482 44.3169C38.1887 44.2086 38.2508 44.1097 38.3306 44.0261C38.4157 43.9456 38.5163 43.8832 38.6262 43.8428C38.7361 43.8023 38.8531 43.7845 38.9701 43.7906C39.0894 43.7842 39.2088 43.8018 39.3212 43.8423C39.4337 43.8827 39.5369 43.9452 39.6249 44.0261C39.706 44.109 39.7692 44.2077 39.8106 44.316C39.8519 44.4244 39.8705 44.5401 39.8652 44.6559V49.1877H42.0768C42.6345 49.1877 42.9136 49.4281 42.9143 49.9088C42.9143 50.1531 42.8451 50.3319 42.7066 50.4473C42.5681 50.5627 42.3595 50.6213 42.0768 50.6213H38.9124C38.8023 50.6285 38.6919 50.6133 38.5878 50.5768C38.4837 50.5403 38.3881 50.4832 38.3066 50.4088V50.4088Z" fill="white"/>
<path d="M44.6413 50.5386C44.2547 50.4506 43.8874 50.2925 43.5577 50.0723C43.4612 50.0039 43.3808 49.9153 43.3221 49.8127C43.27 49.705 43.2452 49.5861 43.25 49.4665C43.2467 49.2846 43.308 49.1075 43.423 48.9665C43.4693 48.9023 43.5299 48.8498 43.6 48.8131C43.6701 48.7763 43.7478 48.7564 43.8269 48.755C43.9086 48.7545 43.9898 48.7675 44.0673 48.7934C44.1686 48.8304 44.2654 48.8788 44.3557 48.9377C44.6019 49.078 44.8658 49.1847 45.1404 49.255C45.4287 49.3225 45.7241 49.3547 46.0202 49.3511C46.399 49.3511 46.6855 49.2953 46.8855 49.1828C46.9763 49.1363 47.052 49.0649 47.1039 48.9771C47.1557 48.8893 47.1817 48.7886 47.1788 48.6867C47.1788 48.5399 47.0875 48.4133 46.9048 48.3069C46.7221 48.2005 46.374 48.0963 45.8605 47.9944C45.3448 47.8989 44.8436 47.7373 44.3692 47.5136C44.0102 47.3271 43.7586 47.1075 43.6144 46.855C43.4499 46.5347 43.3769 46.1753 43.4031 45.8163C43.4294 45.4572 43.5541 45.1123 43.7634 44.8194C44.0229 44.4751 44.369 44.2058 44.7663 44.0386C45.2213 43.8416 45.7129 43.7433 46.2086 43.7502C46.6304 43.7442 47.0509 43.796 47.4586 43.904C47.8177 44.0039 48.1563 44.1667 48.4586 44.3848C48.5602 44.4525 48.6444 44.5431 48.7048 44.6492C48.7559 44.7559 48.7806 44.8733 48.7769 44.9915C48.7803 45.1726 48.7208 45.3493 48.6086 45.4915C48.5633 45.5558 48.5035 45.6084 48.434 45.6452C48.3645 45.682 48.2872 45.7018 48.2086 45.703C48.1304 45.7036 48.0526 45.6923 47.9779 45.6694C47.8734 45.6305 47.7735 45.5806 47.6798 45.5203C47.648 45.5011 47.5557 45.4511 47.4057 45.3713C47.2384 45.2848 47.0607 45.2202 46.8769 45.179C46.6606 45.1293 46.4392 45.1051 46.2173 45.1069C45.942 45.0939 45.6687 45.1589 45.4288 45.2944C45.3391 45.3424 45.2641 45.4138 45.2116 45.5009C45.1591 45.5881 45.1312 45.6878 45.1307 45.7896C45.1258 45.8989 45.1638 46.0059 45.2365 46.0877C45.35 46.1906 45.4845 46.2677 45.6307 46.3136C45.9097 46.4109 46.1959 46.4864 46.4865 46.5396C46.9904 46.6359 47.4791 46.7995 47.9394 47.0261C48.2452 47.1729 48.5049 47.4007 48.6904 47.6848C48.8426 47.9543 48.919 48.26 48.9115 48.5694C48.9181 48.972 48.7928 49.3658 48.5548 49.6905C48.2995 50.0285 47.9548 50.2883 47.5596 50.4405C47.0864 50.626 46.5812 50.7162 46.073 50.7059C45.5907 50.7105 45.1096 50.6543 44.6413 50.5386V50.5386Z" fill="white"/>
</g>
<defs>
<clipPath id="clip0_47_5707">
<rect width="49.2308" height="49.2308" fill="white" transform="translate(15.3846 15.3848)"/>
</clipPath>
</defs>
</svg>
